<svg version="1.1" id="Layer_1" xmlns="http://www.w3.org/2000/svg" xmlns:xlink="http://www.w3.org/1999/xlink" x="0px" y="0px"
	 width="210px" height="160px" viewBox="0 0 210 160" xml:space="preserve">

	<style>
	path {
		fill: #ffffff;
	}

	</style>

	<path d="M113.998,105.348c-6.367,4.325-13.814,18.747-13.814,18.747l-3.85-0.044
		c2.519-5.516,4.106-10.063,5.056-13.818c-0.975,0.329-1.527,0.49-1.527,0.49c-7.665,2.614-15.44,3.972-22.365,4.061
		c7.277,10.847,20.527,12.793,20.527,12.793c18.627,2.501,32.761-7.685,40.347-15.08
		C122.695,103.978,113.998,105.348,113.998,105.348z"/>
	<path d="M61.044,92.424c-0.098,0.554-0.152,0.895-0.152,0.895c-8.135,9.275-0.033,13.689-0.033,13.689
		c0.284,0.145,0.595,0.273,0.92,0.392C60.449,102.17,60.356,97.128,61.044,92.424z"/>
	<path d="M174.347,65.278c0,0,12.259-30.523-15.829-51.44c0,0-45.005-29.594-70.146,19.832
		c0,0-18.001-17.973-40.194-4.028c-18.98,11.927-15.829,28.044-14.122,36.101c0,0-35.829,10.516-33.986,48.651
		c1.707,35.326,43.683,39.933,43.683,39.933l123.301-0.578c0,0,42.757-3.609,42.113-40.975
		C208.521,75.408,174.347,65.278,174.347,65.278z M97.122,133.704c-23.809-0.265-32.264-18.13-32.264-18.13
		c-0.479-0.95-0.911-1.896-1.302-2.839c-6.525-2.431-10.396-7.024-9.494-13.861c0.916-6.935,8.681-13.689,8.681-13.689
		c-0.198,0.555-0.391,1.213-0.572,1.91c4.167-15.034,15.286-25.487,15.286-25.487s8.555-9.118,17.855-13.789l16.203,2.514
		C74.778,65.278,72.894,96.229,72.894,96.229c-0.235,4.658,0.345,8.622,1.447,12.02c2.732-0.2,4.722-0.497,4.722-0.497
		c9.07-1.39,16.89-3.84,23.516-6.731c-0.22-6.083-2.996-7.609-2.996-7.609s-3.343-3.8-17.021-6.026l1.311-1.821
		c0,0,6.778,1.516,14.433,0.049c8.344-1.599,15.98-7.31,24.446-18.97l4.111-0.181c-8.32,11.036-8.893,19.366-7.5,24.854
		c8.275-6.168,12.205-11.582,12.205-11.582c14.946-20.899-5.82-17.724-5.82-17.724l6.251-7.382
		c31.744,6.878,2.611,35.556,2.611,35.556c-3.376,3.47-7.118,6.448-10.859,8.979c0.459,0.489,5.964,6.198,16.602,11.318
		c2.774-2.95,4.255-5.083,4.255-5.083l4.177,0.752C123.974,135.952,97.122,133.704,97.122,133.704z M108.397,74.154
		c-0.151,3.5-3.036,6.318-6.54,6.391c-3.865,0.079-6.991-3.117-6.822-6.981c0.153-3.5,3.036-6.319,6.539-6.391
		C105.443,67.093,108.564,70.289,108.397,74.154z"/>

</svg>
