<?xml version="1.0" encoding="utf-8"?>
<!-- Generator: Adobe Illustrator 24.1.1, SVG Export Plug-In . SVG Version: 6.00 Build 0)  -->
<svg version="1.1" id="Layer_1" xmlns="http://www.w3.org/2000/svg" xmlns:xlink="http://www.w3.org/1999/xlink" x="0px" y="0px"
	 viewBox="0 0 4300.1 340.6" style="enable-background:new 0 0 4300.1 340.6;" xml:space="preserve">
<style type="text/css">
	.st0{fill:#543D2C;}
	.st1{fill:#754F36;}
</style>
<path class="st0" d="M4300.3,340.6H0V19.9h4300.3V340.6z"/>
<path class="st0" d="M589.5,22.8c0,12.5-15.4,22.7-34.5,22.7c-19,0-34.5-10.2-34.5-22.7S536,0.1,555.1,0.1
	C574.1,0.1,589.5,10.3,589.5,22.8z"/>
<path class="st0" d="M1183.7,22.8c0,12.5-15.4,22.7-34.5,22.7c-19,0-34.4-10.2-34.4-22.7s15.4-22.7,34.4-22.7
	C1168.3,0.1,1183.7,10.3,1183.7,22.8z"/>
<path class="st0" d="M1376.8,22.8c0,12.5-15.4,22.7-34.5,22.7c-19,0-34.5-10.2-34.5-22.7s15.4-22.7,34.5-22.7
	C1361.3,0.1,1376.8,10.3,1376.8,22.8z"/>
<path class="st0" d="M1311,22.8c0,12.5-15.4,22.7-34.5,22.7c-19,0-34.5-10.2-34.5-22.7s15.4-22.7,34.5-22.7
	C1295.6,0.1,1311,10.3,1311,22.8z"/>
<path class="st0" d="M531.8,22.8c0,12.5-15.4,22.7-34.5,22.7c-19,0-34.5-10.2-34.5-22.7s15.4-22.7,34.5-22.7
	C516.4,0.1,531.8,10.3,531.8,22.8z"/>
<path class="st0" d="M1120,22.8c0,12.5-15.4,22.7-34.5,22.7c-19,0-34.5-10.2-34.5-22.7s15.4-22.7,34.5-22.7
	C1104.6,0.1,1120,10.3,1120,22.8z"/>
<path class="st0" d="M1246.6,22.8c0,12.5-15.4,22.7-34.4,22.7s-34.5-10.2-34.5-22.7s15.4-22.7,34.5-22.7S1246.6,10.3,1246.6,22.8z"
	/>
<path class="st0" d="M1433.3,22.8c0,12.5-15.4,22.7-34.5,22.7c-19,0-34.5-10.2-34.5-22.7s15.4-22.7,34.5-22.7
	C1417.9,0.1,1433.3,10.3,1433.3,22.8z"/>
<path class="st0" d="M474.1,22.8c0,12.5-15.4,22.7-34.5,22.7c-19,0-34.5-10.2-34.5-22.7s15.4-22.7,34.5-22.7
	C458.7,0.1,474.1,10.3,474.1,22.8z"/>
<path class="st0" d="M1062.3,22.8c0,12.5-15.4,22.7-34.5,22.7c-19,0-34.5-10.2-34.5-22.7s15.4-22.7,34.5-22.7
	C1046.9,0.1,1062.3,10.3,1062.3,22.8z"/>
<path class="st0" d="M416.4,22.8c0,12.5-15.4,22.7-34.5,22.7c-19,0-34.5-10.2-34.5-22.7S363,0.1,382,0.1S416.4,10.3,416.4,22.8z"/>
<path class="st0" d="M1004.6,22.8c0,12.5-15.4,22.7-34.5,22.7c-19,0-34.5-10.2-34.5-22.7S951,0.1,970.1,0.1
	C989.2,0.1,1004.6,10.3,1004.6,22.8z"/>
<path class="st0" d="M358.8,22.8c0,12.5-15.4,22.7-34.5,22.7c-19,0-34.5-10.2-34.5-22.7s15.4-22.7,34.5-22.7
	C343.3,0.1,358.8,10.3,358.8,22.8z"/>
<path class="st0" d="M946.9,22.8c0,12.5-15.4,22.7-34.5,22.7c-19,0-34.5-10.2-34.5-22.7s15.4-22.7,34.5-22.7
	C931.5,0.1,946.9,10.3,946.9,22.8z"/>
<path class="st0" d="M301.1,22.8c0,12.5-15.4,22.7-34.5,22.7s-34.5-10.2-34.5-22.7s15.4-22.7,34.5-22.7S301.1,10.3,301.1,22.8z"/>
<path class="st0" d="M889.2,22.8c0,12.5-15.4,22.7-34.5,22.7c-19,0-34.5-10.2-34.5-22.7s15.4-22.7,34.5-22.7
	C873.8,0.1,889.2,10.3,889.2,22.8z"/>
<path class="st0" d="M243.4,22.8c0,12.5-15.4,22.7-34.5,22.7s-34.5-10.2-34.5-22.7s15.4-22.7,34.5-22.7S243.4,10.3,243.4,22.8z"/>
<path class="st0" d="M831.5,22.8c0,12.5-15.4,22.7-34.5,22.7c-19,0-34.5-10.2-34.5-22.7S778,0.1,797.1,0.1
	C816.1,0.1,831.5,10.3,831.5,22.8z"/>
<path class="st0" d="M185.7,22.8c0,12.5-15.4,22.7-34.5,22.7c-19,0-34.5-10.2-34.5-22.7s15.4-22.7,34.5-22.7
	C170.2,0.1,185.7,10.3,185.7,22.8z"/>
<path class="st0" d="M773.8,22.8c0,12.5-15.4,22.7-34.5,22.7c-19,0-34.5-10.2-34.5-22.7s15.4-22.7,34.5-22.7
	C758.4,0.1,773.8,10.3,773.8,22.8z"/>
<path class="st0" d="M128,22.8c0,12.5-15.4,22.7-34.5,22.7c-19,0-34.5-10.2-34.5-22.7S74.5,0.1,93.5,0.1
	C112.6,0.1,128,10.3,128,22.8z"/>
<path class="st0" d="M716.1,22.8c0,12.5-15.4,22.7-34.5,22.7c-19,0-34.5-10.2-34.5-22.7s15.4-22.7,34.5-22.7
	C700.7,0.1,716.1,10.3,716.1,22.8z"/>
<path class="st0" d="M70.3,22.8c0,12.5-15.4,22.7-34.5,22.7S1.4,35.3,1.4,22.8S16.8,0.1,35.8,0.1S70.3,10.3,70.3,22.8z"/>
<path class="st0" d="M658.4,22.8c0,12.5-15.4,22.7-34.5,22.7s-34.5-10.2-34.5-22.7S605,0.1,624,0.1S658.4,10.3,658.4,22.8z"/>
<path class="st1" d="M106.7,28.5c0,4.5-3.6,8.1-8.1,8.1s-8.1-3.6-8.1-8.1s3.6-8.1,8.1-8.1C103.1,20.4,106.7,24,106.7,28.5z"/>
<path class="st1" d="M927.6,41.8c0-4.5,3.6-8.1,8.1-8.1s8.1,3.6,8.1,8.1s-3.6,8.1-8.1,8.1C931.2,49.9,927.6,46.3,927.6,41.8z"/>
<path class="st1" d="M166.4,37.4c0,2.4-2,4.4-4.4,4.4s-4.4-2-4.4-4.4s2-4.4,4.4-4.4S166.4,35,166.4,37.4z"/>
<path class="st1" d="M869.3,25.2c0-2.4,2-4.4,4.4-4.4s4.4,2,4.4,4.4s-2,4.4-4.4,4.4C871.2,29.6,869.3,27.6,869.3,25.2z"/>
<path class="st1" d="M710.9,50.7c0-5.8,4.7-10.5,10.5-10.5s10.5,4.7,10.5,10.5s-4.7,10.5-10.5,10.5
	C715.6,61.2,710.9,56.5,710.9,50.7z"/>
<path class="st1" d="M1246.6,63c0-5.8,4.7-10.5,10.5-10.5s10.5,4.7,10.5,10.5s-4.7,10.5-10.5,10.5
	C1251.3,73.5,1246.6,68.8,1246.6,63z"/>
<path class="st1" d="M626.8,63.3c0-5.7,4.6-10.2,10.2-10.2c5.7,0,10.2,4.6,10.2,10.2c0,5.7-4.6,10.2-10.2,10.2
	C631.4,73.5,626.8,69,626.8,63.3z"/>
<path class="st1" d="M1128.8,45.5c0-5.7,4.6-10.2,10.2-10.2c5.7,0,10.2,4.6,10.2,10.2c0,5.7-4.6,10.2-10.2,10.2
	C1133.4,55.8,1128.8,51.2,1128.8,45.5z"/>
<path class="st1" d="M531.8,33c0-5.3,4.3-9.5,9.5-9.5c5.3,0,9.5,4.3,9.5,9.5s-4.3,9.5-9.5,9.5S531.8,38.3,531.8,33z"/>
<path class="st1" d="M1027.8,61.2c0-5.3,4.3-9.5,9.5-9.5c5.3,0,9.5,4.3,9.5,9.5s-4.3,9.5-9.5,9.5
	C1032.1,70.7,1027.8,66.5,1027.8,61.2z"/>
<path class="st1" d="M455.5,41.8c0,2.8-2.3,5-5,5c-2.8,0-5-2.3-5-5c0-2.8,2.3-5.1,5-5.1C453.3,36.8,455.5,39,455.5,41.8z"/>
<path class="st1" d="M1077.5,24.6c0-2.8,2.3-5.1,5.1-5.1c2.8,0,5,2.3,5,5.1s-2.3,5-5,5C1079.7,29.6,1077.5,27.4,1077.5,24.6z"/>
<path class="st1" d="M334.3,19.9c0,5.5-4.5,10-10,10s-10-4.5-10-10s4.5-10,10-10S334.3,14.4,334.3,19.9z"/>
<path class="st1" d="M1181.7,19.6c0-5.5,4.5-10,10-10s10,4.5,10,10s-4.5,10-10,10C1186.1,29.6,1181.7,25.1,1181.7,19.6z"/>
<path class="st1" d="M236.9,56.8c0,3.4-2.7,6.1-6.1,6.1c-3.4,0-6.1-2.7-6.1-6.1c0-3.4,2.7-6.1,6.1-6.1S236.9,53.4,236.9,56.8z"/>
<path class="st1" d="M794.3,31.3c0-3.4,2.7-6.1,6.1-6.1c3.4,0,6.1,2.7,6.1,6.1s-2.7,6.1-6.1,6.1C797,37.4,794.3,34.7,794.3,31.3z"/>
<path class="st1" d="M1282.2,31.3c0-3.4,2.7-6.1,6.1-6.1s6.1,2.7,6.1,6.1s-2.7,6.1-6.1,6.1C1284.9,37.4,1282.2,34.7,1282.2,31.3z"/>
<path class="st1" d="M32.8,74.8c0,4.2-3.4,7.5-7.5,7.5s-7.5-3.4-7.5-7.5c0-4.2,3.4-7.5,7.5-7.5S32.8,70.7,32.8,74.8z"/>
<path class="st1" d="M998.4,13.3c0-4.2,3.4-7.5,7.5-7.5s7.5,3.4,7.5,7.5c0,4.2-3.4,7.5-7.5,7.5S998.4,17.4,998.4,13.3z"/>
<path class="st0" d="M1433.5,19.9H2867"/>
<path class="st0" d="M2023,22.8c0,12.5-15.4,22.7-34.5,22.7S1954,35.3,1954,22.8s15.4-22.7,34.5-22.7S2023,10.3,2023,22.8z"/>
<path class="st0" d="M2617.2,22.8c0,12.5-15.4,22.7-34.5,22.7c-19,0-34.4-10.2-34.4-22.7s15.4-22.7,34.4-22.7
	C2601.8,0.1,2617.2,10.3,2617.2,22.8z"/>
<path class="st0" d="M2810.3,22.8c0,12.5-15.4,22.7-34.5,22.7c-19,0-34.5-10.2-34.5-22.7s15.4-22.7,34.5-22.7
	C2794.9,0.1,2810.3,10.3,2810.3,22.8z"/>
<path class="st0" d="M2744.5,22.8c0,12.5-15.4,22.7-34.5,22.7c-19,0-34.5-10.2-34.5-22.7s15.4-22.7,34.5-22.7
	C2729.1,0.1,2744.5,10.3,2744.5,22.8z"/>
<path class="st0" d="M1965.3,22.8c0,12.5-15.4,22.7-34.5,22.7c-19,0-34.5-10.2-34.5-22.7s15.4-22.7,34.5-22.7
	C1949.9,0.1,1965.3,10.3,1965.3,22.8z"/>
<path class="st0" d="M2553.5,22.8c0,12.5-15.4,22.7-34.5,22.7c-19,0-34.5-10.2-34.5-22.7S2500,0.1,2519,0.1
	C2538.1,0.1,2553.5,10.3,2553.5,22.8z"/>
<path class="st0" d="M2680.1,22.8c0,12.5-15.4,22.7-34.4,22.7s-34.5-10.2-34.5-22.7s15.4-22.7,34.5-22.7S2680.1,10.3,2680.1,22.8z"
	/>
<path class="st0" d="M2866.8,22.8c0,12.5-15.4,22.7-34.5,22.7c-19,0-34.5-10.2-34.5-22.7s15.4-22.7,34.5-22.7
	C2851.4,0.1,2866.8,10.3,2866.8,22.8z"/>
<path class="st0" d="M1907.7,22.8c0,12.5-15.4,22.7-34.5,22.7c-19,0-34.5-10.2-34.5-22.7s15.4-22.7,34.5-22.7
	C1892.2,0.1,1907.7,10.3,1907.7,22.8z"/>
<path class="st0" d="M2495.8,22.8c0,12.5-15.4,22.7-34.5,22.7c-19,0-34.5-10.2-34.5-22.7s15.4-22.7,34.5-22.7
	C2480.4,0.1,2495.8,10.3,2495.8,22.8z"/>
<path class="st0" d="M1850,22.8c0,12.5-15.4,22.7-34.5,22.7c-19,0-34.5-10.2-34.5-22.7s15.4-22.7,34.5-22.7
	C1834.5,0.1,1850,10.3,1850,22.8z"/>
<path class="st0" d="M2438.1,22.8c0,12.5-15.4,22.7-34.5,22.7c-19,0-34.5-10.2-34.5-22.7s15.4-22.7,34.5-22.7
	C2422.7,0.1,2438.1,10.3,2438.1,22.8z"/>
<path class="st0" d="M1792.3,22.8c0,12.5-15.4,22.7-34.5,22.7c-19,0-34.5-10.2-34.5-22.7s15.4-22.7,34.5-22.7
	C1776.8,0.1,1792.3,10.3,1792.3,22.8z"/>
<path class="st0" d="M2380.4,22.8c0,12.5-15.4,22.7-34.5,22.7c-19,0-34.5-10.2-34.5-22.7s15.4-22.7,34.5-22.7
	C2365,0.1,2380.4,10.3,2380.4,22.8z"/>
<path class="st0" d="M1734.6,22.8c0,12.5-15.4,22.7-34.5,22.7c-19,0-34.5-10.2-34.5-22.7s15.4-22.7,34.5-22.7
	C1719.2,0.1,1734.6,10.3,1734.6,22.8z"/>
<path class="st0" d="M2322.7,22.8c0,12.5-15.4,22.7-34.5,22.7c-19,0-34.5-10.2-34.5-22.7s15.4-22.7,34.5-22.7
	C2307.3,0.1,2322.7,10.3,2322.7,22.8z"/>
<path class="st0" d="M1676.9,22.8c0,12.5-15.4,22.7-34.5,22.7S1608,35.3,1608,22.8s15.4-22.7,34.5-22.7S1676.9,10.3,1676.9,22.8z"/>
<path class="st0" d="M2265,22.8c0,12.5-15.4,22.7-34.5,22.7c-19,0-34.5-10.2-34.5-22.7s15.4-22.7,34.5-22.7
	C2249.6,0.1,2265,10.3,2265,22.8z"/>
<path class="st0" d="M1619.2,22.8c0,12.5-15.4,22.7-34.5,22.7c-19,0-34.5-10.2-34.5-22.7s15.4-22.7,34.5-22.7
	C1603.8,0.1,1619.2,10.3,1619.2,22.8z"/>
<path class="st0" d="M2207.3,22.8c0,12.5-15.4,22.7-34.5,22.7c-19,0-34.5-10.2-34.5-22.7s15.4-22.7,34.5-22.7
	C2191.9,0.1,2207.3,10.3,2207.3,22.8z"/>
<path class="st0" d="M1561.5,22.8c0,12.5-15.4,22.7-34.5,22.7c-19,0-34.5-10.2-34.5-22.7S1508,0.1,1527,0.1
	C1546.1,0.1,1561.5,10.3,1561.5,22.8z"/>
<path class="st0" d="M2149.6,22.8c0,12.5-15.4,22.7-34.5,22.7c-19,0-34.5-10.2-34.5-22.7s15.4-22.7,34.5-22.7
	C2134.2,0.1,2149.6,10.3,2149.6,22.8z"/>
<path class="st0" d="M1503.8,22.8c0,12.5-15.4,22.7-34.5,22.7s-34.5-10.2-34.5-22.7s15.4-22.7,34.5-22.7S1503.8,10.3,1503.8,22.8z"
	/>
<path class="st0" d="M2092,22.8c0,12.5-15.4,22.7-34.5,22.7c-19,0-34.5-10.2-34.5-22.7s15.4-22.7,34.5-22.7
	C2076.5,0.1,2092,10.3,2092,22.8z"/>
<path class="st1" d="M1540.2,28.5c0,4.5-3.6,8.1-8.1,8.1s-8.1-3.6-8.1-8.1s3.6-8.1,8.1-8.1C1536.6,20.4,1540.2,24,1540.2,28.5z"/>
<path class="st1" d="M2358.1,59.6c0-4.5,3.6-8.1,8.1-8.1s8.1,3.6,8.1,8.1s-3.6,8.1-8.1,8.1C2361.7,67.7,2358.1,64.1,2358.1,59.6z"/>
<path class="st1" d="M1595.5,37.4c0,2.4-2,4.4-4.4,4.4s-4.4-2-4.4-4.4s2-4.4,4.4-4.4S1595.5,35,1595.5,37.4z"/>
<path class="st1" d="M2302.8,25.2c0-2.4,2-4.4,4.4-4.4s4.4,2,4.4,4.4s-2,4.4-4.4,4.4C2304.7,29.6,2302.8,27.6,2302.8,25.2z"/>
<path class="st1" d="M2172.9,45.5c0-5.8,4.7-10.5,10.5-10.5s10.5,4.7,10.5,10.5s-4.7,10.5-10.5,10.5
	C2177.6,56,2172.9,51.3,2172.9,45.5z"/>
<path class="st1" d="M2663,63c0-5.8,4.7-10.5,10.5-10.5S2684,57.2,2684,63s-4.7,10.5-10.5,10.5S2663,68.8,2663,63z"/>
<path class="st1" d="M2070.5,33c0-5.7,4.6-10.2,10.2-10.2c5.7,0,10.2,4.6,10.2,10.2c0,5.7-4.6,10.2-10.2,10.2
	C2075.1,43.3,2070.5,38.7,2070.5,33z"/>
<path class="st1" d="M2548.2,63.3c0-5.7,4.6-10.2,10.2-10.2c5.7,0,10.2,4.6,10.2,10.2c0,5.7-4.6,10.2-10.2,10.2
	S2548.2,69,2548.2,63.3z"/>
<path class="st1" d="M1979.1,33c0-5.3,4.3-9.5,9.5-9.5c5.3,0,9.5,4.3,9.5,9.5s-4.3,9.5-9.5,9.5C1983.3,42.5,1979.1,38.3,1979.1,33z"
	/>
<path class="st1" d="M2480.8,72.8c0-5.3,4.3-9.5,9.5-9.5c5.3,0,9.5,4.3,9.5,9.5s-4.3,9.5-9.5,9.5C2485,82.3,2480.8,78.1,2480.8,72.8
	z"/>
<path class="st1" d="M1875.1,63.5c0,2.8-2.3,5-5,5c-2.8,0-5-2.3-5-5c0-2.8,2.3-5.1,5-5.1C1872.9,58.5,1875.1,60.7,1875.1,63.5z"/>
<path class="st1" d="M2511,24.6c0-2.8,2.3-5.1,5.1-5.1s5,2.3,5,5.1s-2.3,5-5,5C2513.3,29.6,2511,27.4,2511,24.6z"/>
<path class="st1" d="M1771,31.3c0,5.5-4.5,10-10,10s-10-4.5-10-10s4.5-10,10-10S1771,25.8,1771,31.3z"/>
<path class="st1" d="M2615.2,19.6c0-5.5,4.5-10,10-10s10,4.5,10,10s-4.5,10-10,10S2615.2,25.1,2615.2,19.6z"/>
<path class="st1" d="M1670.5,56.8c0,3.4-2.7,6.1-6.1,6.1s-6.1-2.7-6.1-6.1c0-3.4,2.7-6.1,6.1-6.1
	C1667.7,50.7,1670.5,53.4,1670.5,56.8z"/>
<path class="st1" d="M2227.8,31.3c0-3.4,2.7-6.1,6.1-6.1c3.4,0,6.1,2.7,6.1,6.1s-2.7,6.1-6.1,6.1
	C2230.5,37.4,2227.8,34.7,2227.8,31.3z"/>
<path class="st1" d="M2715.7,31.3c0-3.4,2.7-6.1,6.1-6.1c3.4,0,6.1,2.7,6.1,6.1s-2.7,6.1-6.1,6.1
	C2718.4,37.4,2715.7,34.7,2715.7,31.3z"/>
<path class="st1" d="M1396.6,45.5c0,4.2-3.4,7.5-7.5,7.5s-7.5-3.4-7.5-7.5c0-4.2,3.4-7.5,7.5-7.5S1396.6,41.4,1396.6,45.5z"/>
<path class="st1" d="M2431.9,13.3c0-4.2,3.4-7.5,7.5-7.5c4.2,0,7.5,3.4,7.5,7.5c0,4.2-3.4,7.5-7.5,7.5
	C2435.3,20.8,2431.9,17.4,2431.9,13.3z"/>
<path class="st0" d="M2866.8,19.9h1433.5"/>
<path class="st0" d="M3456.3,22.8c0,12.5-15.4,22.7-34.5,22.7c-19,0-34.5-10.2-34.5-22.7s15.4-22.7,34.5-22.7
	C3440.9,0.1,3456.3,10.3,3456.3,22.8z"/>
<path class="st0" d="M4050.5,22.8c0,12.5-15.4,22.7-34.5,22.7c-19,0-34.4-10.2-34.4-22.7S3997,0.1,4016,0.1
	C4035.1,0.1,4050.5,10.3,4050.5,22.8z"/>
<path class="st0" d="M4243.6,22.8c0,12.5-15.4,22.7-34.5,22.7c-19,0-34.5-10.2-34.5-22.7s15.4-22.7,34.5-22.7
	C4228.1,0.1,4243.6,10.3,4243.6,22.8z"/>
<path class="st0" d="M4177.8,22.8c0,12.5-15.4,22.7-34.5,22.7c-19,0-34.4-10.2-34.4-22.7s15.4-22.7,34.4-22.7
	C4162.4,0.1,4177.8,10.3,4177.8,22.8z"/>
<path class="st0" d="M3398.6,22.8c0,12.5-15.4,22.7-34.5,22.7c-19,0-34.5-10.2-34.5-22.7s15.4-22.7,34.5-22.7
	C3383.2,0.1,3398.6,10.3,3398.6,22.8z"/>
<path class="st0" d="M3986.8,22.8c0,12.5-15.4,22.7-34.5,22.7c-19,0-34.5-10.2-34.5-22.7s15.4-22.7,34.5-22.7
	C3971.3,0.1,3986.8,10.3,3986.8,22.8z"/>
<path class="st0" d="M4113.4,22.8c0,12.5-15.4,22.7-34.4,22.7s-34.5-10.2-34.5-22.7s15.4-22.7,34.5-22.7S4113.4,10.3,4113.4,22.8z"
	/>
<path class="st0" d="M4300.1,22.8c0,12.5-15.4,22.7-34.4,22.7s-34.5-10.2-34.5-22.7s15.4-22.7,34.5-22.7
	C4284.7,0.1,4300.1,10.3,4300.1,22.8z"/>
<path class="st0" d="M3340.9,22.8c0,12.5-15.4,22.7-34.5,22.7c-19,0-34.5-10.2-34.5-22.7s15.4-22.7,34.5-22.7
	C3325.5,0.1,3340.9,10.3,3340.9,22.8z"/>
<path class="st0" d="M3929.1,22.8c0,12.5-15.4,22.7-34.5,22.7c-19,0-34.5-10.2-34.5-22.7s15.4-22.7,34.5-22.7
	C3913.7,0.1,3929.1,10.3,3929.1,22.8z"/>
<path class="st0" d="M3283.2,22.8c0,12.5-15.4,22.7-34.5,22.7c-19,0-34.5-10.2-34.5-22.7s15.4-22.7,34.5-22.7
	C3267.8,0.1,3283.2,10.3,3283.2,22.8z"/>
<path class="st0" d="M3871.4,22.8c0,12.5-15.4,22.7-34.5,22.7c-19,0-34.5-10.2-34.5-22.7s15.4-22.7,34.5-22.7
	C3856,0.1,3871.4,10.3,3871.4,22.8z"/>
<path class="st0" d="M3225.6,22.8c0,12.5-15.4,22.7-34.5,22.7c-19,0-34.5-10.2-34.5-22.7s15.4-22.7,34.5-22.7
	C3210.1,0.1,3225.6,10.3,3225.6,22.8z"/>
<path class="st0" d="M3813.7,22.8c0,12.5-15.4,22.7-34.5,22.7c-19,0-34.5-10.2-34.5-22.7s15.4-22.7,34.5-22.7
	C3798.3,0.1,3813.7,10.3,3813.7,22.8z"/>
<path class="st0" d="M3167.9,22.8c0,12.5-15.4,22.7-34.5,22.7s-34.5-10.2-34.5-22.7s15.4-22.7,34.5-22.7S3167.9,10.3,3167.9,22.8z"
	/>
<path class="st0" d="M3756,22.8c0,12.5-15.4,22.7-34.5,22.7c-19,0-34.5-10.2-34.5-22.7s15.4-22.7,34.5-22.7
	C3740.6,0.1,3756,10.3,3756,22.8z"/>
<path class="st0" d="M3110.2,22.8c0,12.5-15.4,22.7-34.5,22.7c-19,0-34.5-10.2-34.5-22.7s15.4-22.7,34.5-22.7
	C3094.7,0.1,3110.2,10.3,3110.2,22.8z"/>
<path class="st0" d="M3698.3,22.8c0,12.5-15.4,22.7-34.5,22.7c-19,0-34.5-10.2-34.5-22.7s15.4-22.7,34.5-22.7
	C3682.9,0.1,3698.3,10.3,3698.3,22.8z"/>
<path class="st0" d="M3052.5,22.8c0,12.5-15.4,22.7-34.5,22.7c-19,0-34.5-10.2-34.5-22.7S2999,0.1,3018,0.1S3052.5,10.3,3052.5,22.8
	z"/>
<path class="st0" d="M3640.6,22.8c0,12.5-15.4,22.7-34.5,22.7c-19,0-34.5-10.2-34.5-22.7s15.4-22.7,34.5-22.7
	C3625.2,0.1,3640.6,10.3,3640.6,22.8z"/>
<path class="st0" d="M2994.8,22.8c0,12.5-15.4,22.7-34.5,22.7c-19,0-34.5-10.2-34.5-22.7s15.4-22.7,34.5-22.7
	C2979.4,0.1,2994.8,10.3,2994.8,22.8z"/>
<path class="st0" d="M3582.9,22.8c0,12.5-15.4,22.7-34.5,22.7c-19,0-34.5-10.2-34.5-22.7s15.4-22.7,34.5-22.7
	C3567.5,0.1,3582.9,10.3,3582.9,22.8z"/>
<path class="st0" d="M2937.1,22.8c0,12.5-15.4,22.7-34.5,22.7c-19,0-34.5-10.2-34.5-22.7s15.4-22.7,34.5-22.7
	C2921.7,0.1,2937.1,10.3,2937.1,22.8z"/>
<path class="st0" d="M3525.2,22.8c0,12.5-15.4,22.7-34.5,22.7s-34.5-10.2-34.5-22.7s15.4-22.7,34.5-22.7S3525.2,10.3,3525.2,22.8z"
	/>
<path class="st1" d="M2973.5,28.5c0,4.5-3.6,8.1-8.1,8.1s-8.1-3.6-8.1-8.1s3.6-8.1,8.1-8.1C2969.9,20.4,2973.5,24,2973.5,28.5z"/>
<path class="st1" d="M3791.3,59.6c0-4.5,3.6-8.1,8.1-8.1s8.1,3.6,8.1,8.1s-3.6,8.1-8.1,8.1C3794.9,67.7,3791.3,64.1,3791.3,59.6z"/>
<path class="st1" d="M3028.8,62.9c0,2.4-2,4.4-4.4,4.4s-4.4-2-4.4-4.4s2-4.4,4.4-4.4S3028.8,60.4,3028.8,62.9z"/>
<path class="st1" d="M3736.1,25.2c0-2.4,2-4.4,4.4-4.4s4.4,2,4.4,4.4s-2,4.4-4.4,4.4C3738,29.6,3736.1,27.6,3736.1,25.2z"/>
<path class="st1" d="M3608.4,63c0-5.8,4.7-10.5,10.5-10.5s10.5,4.7,10.5,10.5s-4.7,10.5-10.5,10.5
	C3613.1,73.5,3608.4,68.8,3608.4,63z"/>
<path class="st1" d="M4096.3,63c0-5.8,4.7-10.5,10.5-10.5s10.5,4.7,10.5,10.5s-4.7,10.5-10.5,10.5S4096.3,68.8,4096.3,63z"/>
<path class="st1" d="M3493.6,63.3c0-5.7,4.6-10.2,10.2-10.2c5.7,0,10.2,4.6,10.2,10.2c0,5.7-4.6,10.2-10.2,10.2
	C3498.2,73.5,3493.6,69,3493.6,63.3z"/>
<path class="st1" d="M3981.5,63.3c0-5.7,4.6-10.2,10.2-10.2c5.7,0,10.2,4.6,10.2,10.2c0,5.7-4.6,10.2-10.2,10.2
	S3981.5,69,3981.5,63.3z"/>
<path class="st1" d="M3426.2,72.8c0-5.3,4.3-9.5,9.5-9.5c5.3,0,9.5,4.3,9.5,9.5s-4.3,9.5-9.5,9.5
	C3430.4,82.3,3426.2,78.1,3426.2,72.8z"/>
<path class="st1" d="M3914,72.8c0-5.3,4.3-9.5,9.5-9.5c5.3,0,9.5,4.3,9.5,9.5s-4.3,9.5-9.5,9.5S3914,78.1,3914,72.8z"/>
<path class="st1" d="M3308.4,63.5c0,2.8-2.3,5-5,5c-2.8,0-5-2.3-5-5c0-2.8,2.3-5.1,5-5.1C3306.1,58.5,3308.4,60.7,3308.4,63.5z"/>
<path class="st1" d="M3944.3,24.6c0-2.8,2.3-5.1,5.1-5.1s5,2.3,5,5.1s-2.3,5-5,5C3946.5,29.6,3944.3,27.4,3944.3,24.6z"/>
<path class="st1" d="M3204.2,68.5c0,5.5-4.5,10-10,10s-10-4.5-10-10s4.5-10,10-10C3199.8,58.5,3204.2,63,3204.2,68.5z"/>
<path class="st1" d="M4048.4,19.6c0-5.5,4.5-10,10-10s10,4.5,10,10s-4.5,10-10,10S4048.4,25.1,4048.4,19.6z"/>
<path class="st1" d="M3103.7,56.8c0,3.4-2.7,6.1-6.1,6.1c-3.4,0-6.1-2.7-6.1-6.1c0-3.4,2.7-6.1,6.1-6.1S3103.7,53.4,3103.7,56.8z"/>
<path class="st1" d="M3661.1,31.3c0-3.4,2.7-6.1,6.1-6.1c3.4,0,6.1,2.7,6.1,6.1s-2.7,6.1-6.1,6.1
	C3663.8,37.4,3661.1,34.7,3661.1,31.3z"/>
<path class="st1" d="M4149,31.3c0-3.4,2.7-6.1,6.1-6.1s6.1,2.7,6.1,6.1s-2.7,6.1-6.1,6.1C4151.7,37.4,4149,34.7,4149,31.3z"/>
<path class="st1" d="M2899.6,74.8c0,4.2-3.4,7.5-7.5,7.5c-4.2,0-7.5-3.4-7.5-7.5c0-4.2,3.4-7.5,7.5-7.5
	C2896.3,67.3,2899.6,70.7,2899.6,74.8z"/>
<path class="st1" d="M3865.2,13.3c0-4.2,3.4-7.5,7.5-7.5c4.2,0,7.5,3.4,7.5,7.5c0,4.2-3.4,7.5-7.5,7.5
	C3868.5,20.8,3865.2,17.4,3865.2,13.3z"/>
</svg>
