<svg width="98" height="78" viewBox="0 0 98 78" fill="none" xmlns="http://www.w3.org/2000/svg">
<path d="M50.3835 21.17V11.0633V7.39531C50.3835 3.41597 56.9295 3.40721 57.2031 7.39531C57.3838 10.0442 61.5849 10.063 61.4036 7.39531C61.1178 3.24275 58.4359 0.533239 54.2854 0.24746C50.6141 -0.00327038 46.8127 3.00752 46.5154 6.76713C46.1434 11.4757 46.4676 16.4519 46.4676 21.17C46.4676 23.866 50.3835 23.866 50.3835 21.17C50.3835 23.866 50.3835 21.17 50.3835 21.17Z" fill="#68523E"/>
<path d="M61.3223 25.8719C61.3223 34.6846 55.7752 41.8297 48.9327 41.8297C42.0908 41.8297 36.5444 34.6846 36.5444 25.8719C36.5444 17.0606 42.0908 9.91614 48.9327 9.91614C55.7752 9.91614 61.3223 17.0606 61.3223 25.8719Z" fill="#68523E"/>
<path d="M97.9627 45.3619C97.9627 62.9757 86.8774 77.2539 73.2017 77.2539C59.5255 77.2539 48.4387 62.9757 48.4387 45.3619C48.4387 27.7481 59.5255 13.4679 73.2017 13.4679C86.8774 13.4679 97.9627 27.7481 97.9627 45.3619Z" fill="#E98024"/>
<path d="M86.1249 45.3619C86.1249 62.9757 75.0395 77.2539 61.3632 77.2539C47.6869 77.2539 36.6008 62.9757 36.6008 45.3619C36.6008 27.7481 47.6869 13.4679 61.3632 13.4679C75.0395 13.4679 86.1249 27.7481 86.1249 45.3619Z" fill="#EC6924"/>
<path d="M0.494629 45.3619C0.494629 62.9757 11.58 77.2539 25.2556 77.2539C38.9319 77.2539 50.018 62.9757 50.018 45.3619C50.018 27.7481 38.9319 13.4679 25.2556 13.4679C11.58 13.4679 0.494629 27.7481 0.494629 45.3619Z" fill="#E98024"/>
<path d="M12.3325 45.3619C12.3325 62.9757 23.4186 77.2539 37.0942 77.2539C50.7705 77.2539 61.8559 62.9757 61.8559 45.3619C61.8559 27.7481 50.7705 13.4679 37.0942 13.4679C23.4186 13.4679 12.3325 27.7481 12.3325 45.3619Z" fill="#EC6924"/>
<path d="M73.6938 45.3619C73.6938 62.9757 62.609 77.2539 48.9328 77.2539C35.2565 77.2539 24.1704 62.9757 24.1704 45.3619C24.1704 27.7481 35.2565 13.4679 48.9328 13.4679C62.609 13.4679 73.6938 27.7481 73.6938 45.3619Z" fill="#E25B20"/>
</svg>
