<svg width="20" height="85" viewBox="0 0 20 85" fill="none" xmlns="http://www.w3.org/2000/svg">
<path d="M11.8209 84.2258L10.2881 62.0566L11.6419 62.0663L11.8209 84.2258" fill="#FAB851"/>
<path d="M11.6315 84.2311L10.0986 62.062L11.4514 62.0717L11.6315 84.2311Z" fill="#FAB851"/>
<path d="M9.31719 81.6394L10.4497 59.4467L11.7919 59.6177L9.31619 81.6395L9.31719 81.6394ZM18.2442 80.7556L12.9928 59.1624L14.3273 58.9434L18.2442 80.7556V80.7556ZM4.84754 79.4691L8.30459 57.5172L9.62167 57.828L4.84754 79.4691" fill="#FAB851"/>
<path d="M8.11637 75.4045L6.5835 53.2344L7.93631 53.245L8.11637 75.4045V75.4045ZM13.5583 81.6256L12.0244 59.4565L13.3782 59.4661L13.5573 81.6256L13.5583 81.6256ZM15.0828 82.6018L13.55 60.4327L14.9037 60.4423L15.0828 82.6018" fill="#FAB851"/>
<path fill-rule="evenodd" clip-rule="evenodd" d="M6.08237 0.176903L5.33858 36.7995L5.37128 37.5043L5.4923 40.2133L5.58705 42.2456L5.63126 43.2207L5.76501 46.1401L5.81591 47.2783L5.889 48.8501L5.97978 50.8814L6.02399 51.8565L6.15872 54.7768L6.36594 59.348L7.58069 59.3727L8.78181 0.231727L6.08237 0.176903ZM13.1619 0.320684L11.9608 59.4616L14.6592 59.5164L15.8604 0.375488L13.1619 0.320684Z" fill="#1C7ED4"/>
<path fill-rule="evenodd" clip-rule="evenodd" d="M3.66654 0.127504L3.79567 2.9598L3.92068 5.6689L4.01444 7.70122L4.05765 8.6763L4.18838 11.5966L4.31341 14.3047L4.40717 16.337L4.45338 17.3121L4.5841 20.2324L4.70512 22.9414L4.80188 24.9738L4.84509 25.9489L4.97884 28.8682L5.10085 31.5772L5.17399 33.147L5.19361 33.6095L5.23782 34.5846L5.24448 34.7488L5.3291 36.5909L5.33787 36.7991L5.3706 37.5019L5.39498 38.0255L5.46714 39.6433L5.49256 40.2139L5.54482 41.3342L5.58634 42.2453L5.63253 43.2214L5.65628 43.726L5.72425 45.2057L5.76525 46.1417L5.81622 47.277L5.86105 48.2211L5.89029 48.8498L5.98105 50.8821L6.02425 51.8571L6.15804 54.7745L6.28202 57.4855L6.36619 59.3496L16.1182 59.5477L17.3193 0.404785L3.66654 0.127504Z" fill="#3B96E6"/>
<path d="M3.76709 2.3219L3.79617 2.95862L3.76709 2.3219Z" fill="#5CA8EA"/>
<path d="M1.70696 -0.000236044L6.08406 0.0886604L6.02485 3.00406L3.7953 2.95878L3.76723 2.32208L3.66791 0.120608L1.70696 -0.000236044ZM8.72429 3.05888L8.7835 0.143485L13.1626 0.232422L13.1034 3.14782L8.72429 3.05888Z" fill="#1C80D7"/>
<path d="M13.1048 3.14788L13.164 0.232483L13.6019 0.241377C13.7961 1.26753 13.9752 2.25337 14.1356 3.16882L13.1048 3.14788ZM6.0845 0.0887015L6.02529 3.0041L8.72473 3.05892L8.78394 0.143526L6.0845 0.0887015Z" fill="#186FBB"/>
<path d="M3.92027 5.66901L3.9684 6.6972L3.92027 5.66901Z" fill="#A6CFF3"/>
<path d="M3.9203 5.66915L5.96988 5.71077L5.92869 7.73936L4.01408 7.70047L3.96844 6.69734L3.9203 5.66915V5.66915ZM8.62813 7.79418L8.66932 5.7656L13.0484 5.85454L13.0072 7.88312L8.62813 7.79418ZM15.7707 7.93924L17.2051 5.96096L17.1644 7.96755L15.7707 7.93924Z" fill="#68AEEB"/>
<path d="M13.008 7.88323L13.0492 5.85465L14.5979 5.8861C14.7341 6.71604 14.844 7.41041 14.9236 7.92214L13.008 7.88323V7.88323ZM5.9697 5.71087L5.9285 7.73945L8.62794 7.79427L8.66914 5.76569L5.9697 5.71087Z" fill="#429AE7"/>
<path d="M4.05923 8.67663L5.90885 8.71419L5.84964 11.6296L4.18898 11.5959L4.05823 8.67661L4.05923 8.67663ZM8.54908 11.6844L8.60829 8.76902L12.9874 8.85795L12.9854 8.95594L12.6135 8.94839L12.5563 11.7658L8.54908 11.6844V11.6844ZM15.6848 9.01076L15.6868 8.91278L17.1445 8.94238L17.0853 11.8578L17.1425 9.04037L15.6848 9.01076V9.01076Z" fill="#1C80D7"/>
<path d="M12.9866 8.95576L12.9885 8.85777L15.688 8.9126L15.686 9.01058L12.9866 8.95576ZM5.90901 8.71399L5.8498 11.6294L8.54924 11.6842L8.60845 8.76882L5.90901 8.71399Z" fill="#186FBB"/>
<path d="M4.31413 14.3049L5.79482 14.335L5.75361 16.3645L4.40788 16.3372L4.31413 14.3049V14.3049ZM8.45205 16.4193L8.49327 14.3898L12.5024 14.4712L12.4612 16.5008L8.45205 16.4193Z" fill="#68AEEB"/>
<path d="M5.7947 14.3348L5.75348 16.3644L8.45292 16.4192L8.49414 14.3896L5.7947 14.3348Z" fill="#429AE7"/>
<path d="M4.45213 17.313L4.5829 20.2313L4.45213 17.313Z" fill="#5CA8EA"/>
<path d="M4.45306 17.3133L5.73379 17.3394L5.6746 20.2538L4.58382 20.2316L4.45306 17.3133V17.3133ZM8.37304 20.3086L8.43223 17.3942L12.4414 17.4756L12.3822 20.39L8.37304 20.3086Z" fill="#1C80D7"/>
<path d="M5.73367 17.3392L5.67448 20.2536L8.37392 20.3085L8.43311 17.394L5.73367 17.3392Z" fill="#186FBB"/>
<path d="M4.75833 24.0559L4.80171 24.9729L4.80071 24.9729L4.75833 24.0559V24.0559Z" fill="#A6CFF3"/>
<path d="M4.70697 22.9408L5.61979 22.9593L5.57857 24.9889L4.80173 24.9731L4.75834 24.056L4.70697 22.9408ZM8.27801 25.0437L8.31923 23.0141L12.6983 23.1031L12.6571 25.1327L8.27801 25.0437ZM15.3565 25.1875L15.3978 23.1579L16.8555 23.1875L16.8142 25.2171L15.3565 25.1875Z" fill="#68AEEB"/>
<path d="M12.6995 23.1029L12.6583 25.1325L15.3567 25.1873L15.3979 23.1577L12.6985 23.1029L12.6995 23.1029ZM5.61997 22.9591L5.57875 24.9887L8.27819 25.0435L8.31941 23.014L5.61997 22.9591Z" fill="#429AE7"/>
<path d="M4.8446 25.9487L5.55845 25.9632L5.49922 28.8796L4.97833 28.869L4.8446 25.9487ZM8.19866 28.9344L8.25789 26.018L12.637 26.107L12.5778 29.0233L8.19866 28.9344ZM15.2933 28.2873L15.3364 26.1618L16.7231 26.1899L15.2933 28.2873Z" fill="#1C80D7"/>
<path d="M12.5792 29.0237L12.6385 26.1073L15.3379 26.1621L15.2947 28.2877L15.2927 28.2896L14.7598 29.068L12.5792 29.0237V29.0237ZM5.55891 25.9635L5.49968 28.8799L8.19912 28.9347L8.25835 26.0183L5.55891 25.9635Z" fill="#186FBB"/>
<path d="M5.09948 31.5773L5.44441 31.5843L5.40319 33.6138L5.19323 33.6096L5.1736 33.1481L5.10048 31.5773L5.09948 31.5773ZM8.10263 33.6687L8.14385 31.6391L12.5229 31.728L12.5101 32.3629L11.741 33.4895L11.7599 33.7429L8.10263 33.6687" fill="#68AEEB"/>
<path d="M12.5112 32.3628L12.524 31.7279L12.939 31.7363L12.5112 32.3618L12.5112 32.3628ZM5.44451 31.5841L5.40329 33.6137L8.10273 33.6685L8.14395 31.6389L5.44451 31.5841Z" fill="#429AE7"/>
<path d="M5.23714 34.5858L5.38311 34.5888L5.33821 36.7993L5.37195 37.5021L5.37095 37.5021L5.3372 36.8003L5.32844 36.5911L5.24383 34.749L5.23714 34.5858V34.5858ZM8.0234 37.556L8.08255 34.6436L16.3309 34.8111L16.5326 37.7288L8.0234 37.556Z" fill="#1C80D7"/>
<path d="M5.33867 36.7993L5.38357 34.5887L8.08301 34.6436L8.02386 37.5559L5.37141 37.5021L5.33867 36.7993Z" fill="#186FBB"/>
<path d="M5.49207 40.2143L5.58684 42.2456L5.58682 42.2466L5.58582 42.2466L5.54433 41.3346L5.49207 40.2143V40.2143ZM7.92733 42.2942L7.96855 40.2646L12.2177 40.3509L12.3178 41.8222L12.3064 42.3831L7.92733 42.2942Z" fill="#68AEEB"/>
<path d="M12.3077 42.3831L12.3191 41.8222L12.319 41.8292L12.3577 42.3841L12.3077 42.3831ZM5.49235 40.2142L7.96884 40.2645L7.92762 42.2941L5.58711 42.2466L5.58713 42.2456L5.49235 40.2142" fill="#429AE7"/>
<path d="M7.84842 46.1843L7.90765 43.2679L12.2868 43.3568L12.2275 46.2732L7.84842 46.1843ZM14.927 46.328L14.9342 45.9731L15.3109 46.3358L14.927 46.328Z" fill="#1C80D7"/>
<path d="M12.2287 46.2732L12.2879 43.3568L12.4259 43.3596L12.4396 43.569L14.9333 45.9711L14.9343 45.9731L14.9271 46.328L12.2277 46.2732L12.2287 46.2732ZM5.63226 43.2216L7.90779 43.2679L7.84856 46.1843L5.76598 46.142L5.72399 45.2059L5.65602 43.7262L5.63226 43.2216V43.2216Z" fill="#186FBB"/>
<path d="M7.75259 50.9182L7.79381 48.8886L12.1729 48.9776L12.1317 51.0071L7.75259 50.9182ZM14.8311 51.062L14.8724 49.0324L16.3311 49.062L16.2898 51.0916L14.8311 51.062Z" fill="#68AEEB"/>
<path d="M12.1736 48.9774L12.1324 51.007L14.8309 51.0618L14.8721 49.0322L12.1726 48.9774L12.1736 48.9774ZM5.88892 48.8498L7.79353 48.8885L7.75231 50.918L5.97968 50.882L5.88892 48.8498Z" fill="#429AE7"/>
<path d="M7.67357 54.8074L7.73278 51.892L12.1119 51.981L12.0527 54.8964L7.67357 54.8074ZM14.7521 54.9512L14.8113 52.0358L16.27 52.0654L16.2108 54.9808L14.7521 54.9512Z" fill="#1C80D7"/>
<path d="M12.1126 51.9808L12.0534 54.8962L14.7518 54.951L14.811 52.0356L12.1116 51.9808L12.1126 51.9808ZM6.02385 51.8572L7.73249 51.8919L7.67328 54.8073L6.1576 54.7765L6.02385 51.8572Z" fill="#186FBB"/>
<path d="M6.36599 59.3486L7.58073 59.3733L7.61852 57.5126L11.9976 57.6016L11.9598 59.4622L14.6593 59.517L14.6971 57.6564L16.1558 57.686L16.118 59.5467L6.36599 59.3486Z" fill="#82BCEF"/>
<path d="M11.9988 57.6019L11.961 59.4626L14.6595 59.5174L14.6973 57.6567L11.9978 57.6019L11.9988 57.6019ZM6.282 57.4858L7.61872 57.513L7.58094 59.3736L6.36619 59.3489L6.282 57.4858Z" fill="#66ADEB"/>
<path d="M12.6135 8.94806L12.3269 23.0622L16.8559 23.1541L17.1426 9.04004L12.6135 8.94806Z" fill="#1C7ED4"/>
<path d="M8.64701 47.3357L5.81659 47.2782L5.76467 46.1409L5.63091 43.2216L5.58673 42.2455L5.49198 40.2132L5.37196 37.5042L5.33826 36.7993L5.23821 34.5849L5.193 33.6097L5.17237 33.1482L8.93359 33.2246L8.64701 47.3357" fill="#1B7ED4"/>
<path d="M18.2733 10.0621C17.5709 10.2739 16.8496 10.3803 16.1226 10.4696C16.0534 10.4782 16.1052 10.7353 16.1854 10.7259C16.9124 10.6366 17.6337 10.5302 18.3371 10.3195C18.4116 10.296 18.3437 10.0416 18.2733 10.0621ZM17.5542 11.6349C17.4607 11.709 17.3096 11.7109 17.1965 11.7186C17.0192 11.731 16.8392 11.7254 16.6603 11.7217C16.6093 11.7207 16.6441 11.9765 16.7241 11.9781C16.9021 11.9817 17.081 11.9843 17.2593 11.9749C17.3874 11.9675 17.5357 11.9586 17.6394 11.8756C17.6932 11.8337 17.6111 11.59 17.5542 11.6349ZM17.982 13.3269C17.4996 13.4361 17.0077 13.5252 16.5117 13.5231C16.4357 13.5225 16.4785 13.7795 16.5745 13.7794C17.0715 13.7815 17.5624 13.6925 18.0447 13.5842C18.1302 13.565 18.0694 13.3077 17.982 13.3269ZM17.8599 14.9028C17.2819 14.898 16.7053 14.9703 16.1417 15.0949C16.0312 15.1187 16.092 15.3759 16.2045 15.3512C16.7532 15.2246 17.3145 15.1606 17.8777 15.1602C18.0047 15.1618 17.9649 14.9039 17.8599 14.9028ZM17.5766 16.5903C17.1286 16.6843 16.6683 16.6929 16.2193 16.7878C16.1349 16.8061 16.1957 17.0624 16.2831 17.0442C16.7311 16.9493 17.1914 16.9406 17.6404 16.8467C17.7248 16.8284 17.664 16.5721 17.5766 16.5903ZM17.5686 18.1675C17.1345 18.1657 16.7139 18.2432 16.3002 18.3688C16.1875 18.4025 16.2534 18.6579 16.363 18.6251C16.7581 18.4974 17.1702 18.4302 17.5853 18.4259C17.7144 18.4265 17.6756 18.1677 17.5686 18.1675ZM17.3937 20.0824C16.9378 20.0731 16.4867 20.0729 16.0387 20.1679C15.9854 20.1788 16.0442 20.436 16.1015 20.4242C16.5495 20.3293 17.0006 20.3294 17.4565 20.3387C17.4945 20.3394 17.4637 20.0838 17.3937 20.0824ZM17.9268 21.5595C17.2847 21.6545 16.6454 21.7645 16.0043 21.8585C15.8839 21.8761 15.9437 22.1333 16.0671 22.1158C16.7092 22.0199 17.3485 21.9108 17.9906 21.8158C18.11 21.7983 18.0502 21.541 17.9268 21.5595ZM15.7012 7.97249C15.7997 8.78766 15.8821 9.60451 15.8734 10.4265C15.8729 10.5025 15.9858 10.7058 15.9872 10.5358C15.9963 9.69284 15.9114 8.85394 15.8093 8.01869C15.7965 7.90941 15.6798 7.79402 15.7012 7.97249ZM14.334 8.65887C14.4444 9.23223 14.6392 9.78531 14.7496 10.3587C14.7804 10.5143 14.8901 10.4835 14.8601 10.3319C14.7508 9.75756 14.5549 9.20547 14.4446 8.63111C14.4147 8.47547 14.3041 8.50623 14.334 8.65887ZM13.6403 9.47295C13.6624 9.06752 13.745 8.66767 13.8855 8.28668C13.9078 8.22312 13.8124 7.99214 13.7827 8.07755C13.6382 8.49471 13.5435 8.92088 13.5265 9.36363C13.5239 9.44059 13.6339 9.64286 13.6403 9.47295ZM13.392 11.6554C12.8671 11.7427 12.3336 11.7599 11.8087 11.8483C11.6983 11.867 11.7581 12.1243 11.8715 12.1046C12.3964 12.0172 12.9299 12 13.4548 11.9117C13.5652 11.8929 13.5064 11.6367 13.392 11.6554ZM13.0233 13.1142C12.6173 13.2079 12.219 13.3159 11.7989 13.3144C11.6829 13.314 11.7297 13.57 11.8217 13.5709C12.2568 13.5717 12.666 13.468 13.0861 13.3705C13.1855 13.3475 13.1228 13.0902 13.0233 13.1142ZM13.3301 14.6987L12.3085 15.017C12.2139 15.0461 12.2807 15.3015 12.3713 15.2734L13.393 14.9551C13.4876 14.926 13.4197 14.6715 13.3301 14.6987ZM13.6246 16.8481C13.2622 16.9608 12.9106 17.0857 12.5855 17.2861C12.5186 17.3288 12.5945 17.5784 12.6786 17.5261C12.9926 17.3314 13.3351 17.2133 13.6874 17.1045C13.7719 17.0782 13.7041 16.8228 13.6246 16.8481ZM13.7148 19.1045C13.2977 19.103 12.8888 19.1927 12.4727 19.1913C12.3427 19.1906 12.3815 19.4495 12.4885 19.4496C12.9056 19.4511 13.3145 19.3604 13.7305 19.3618C13.8606 19.3625 13.8218 19.1046 13.7148 19.1045ZM13.2124 20.4485C12.8343 20.4488 12.4624 20.5383 12.0833 20.5386C12.0383 20.5387 12.0721 20.7945 12.1461 20.795C12.5252 20.7947 12.8971 20.7052 13.2762 20.7049C13.3212 20.7048 13.2864 20.449 13.2124 20.4485ZM13.0798 21.461C12.5527 21.5574 12.0336 21.6578 11.4955 21.6549C11.4395 21.6548 11.4773 21.9106 11.5593 21.9113C12.0974 21.9142 12.6165 21.8137 13.1426 21.7174C13.2098 21.7057 13.1531 21.4485 13.0798 21.461ZM13.0569 22.5888C12.6876 22.6963 12.2993 22.7105 11.9245 22.7919C11.814 22.8156 11.8758 23.0719 11.9873 23.0482C12.3621 22.9658 12.7504 22.9517 13.1197 22.8451C13.2294 22.8134 13.1635 22.557 13.0569 22.5888ZM15.0846 21.8848C15.0811 22.4509 15.1667 23.0117 15.1632 23.5778C15.1622 23.6288 15.2603 23.8688 15.2598 23.7458C15.2633 23.1797 15.1787 22.6189 15.1822 22.0529C15.1832 22.0019 15.0851 21.7618 15.0846 21.8848ZM14.1312 22.3876L14.0991 23.9663C14.0962 24.1112 14.2781 24.1669 14.2816 23.993L14.3137 22.4153C14.3166 22.2703 14.1347 22.2146 14.1312 22.3876ZM7.7413 32.2159C7.94272 33.0173 8.03763 33.8418 8.02356 34.6681C8.02274 34.8071 8.19043 34.8735 8.19296 34.6995C8.20628 33.8495 8.10749 33.0013 7.89912 32.1771C7.85928 32.0212 7.70145 32.06 7.7413 32.2159ZM6.71458 32.4381C6.5971 32.9038 6.57556 33.3734 6.56585 33.8513C6.5629 33.9963 6.74783 34.0511 6.75136 33.8771C6.76015 33.4442 6.77593 33.0124 6.88254 32.5895C6.90974 32.481 6.7537 32.2848 6.71458 32.4381ZM10.2078 36.4018L7.95328 36.356C7.81331 36.3532 7.84304 36.6128 7.96502 36.6153L10.2195 36.6611C10.3585 36.6639 10.3298 36.4043 10.2078 36.4018ZM9.69424 38.1977C9.13929 38.2885 8.58219 38.2872 8.02131 38.2758C7.90433 38.2734 7.94912 38.5304 8.0441 38.5323C8.61799 38.544 9.18904 38.5476 9.75705 38.4541C9.8564 38.4381 9.79761 38.1808 9.69424 38.1977ZM9.45869 39.9953C9.04165 39.9929 8.63175 40.0826 8.21665 40.0831C8.07664 40.0823 8.10437 40.3419 8.22739 40.3424C8.64349 40.3418 9.05237 40.2531 9.46942 40.2546C9.60944 40.2555 9.5817 39.9958 9.45869 39.9953ZM9.50442 42.0287C9.08764 42.0132 8.68273 41.906 8.26596 41.8905C8.21699 41.8885 8.24981 42.1442 8.32877 42.1468C8.74554 42.1623 9.15045 42.2695 9.56622 42.285C9.61619 42.287 9.58338 42.0313 9.50442 42.0287ZM9.37482 43.8294C8.86096 43.719 8.32815 43.7041 8.17585 44.3082C8.15403 44.3977 8.2857 44.6125 8.32271 44.4642C8.45657 43.9308 8.96241 43.9931 9.39762 44.0859C9.50517 44.1091 9.47042 43.8504 9.37482 43.8294ZM9.44284 45.7502C9.08621 45.6789 8.40887 45.5902 8.17136 45.9574C8.12801 46.0236 8.2275 46.2466 8.25851 46.1973C8.48155 45.8527 9.14995 45.9383 9.47668 46.0039C9.55338 46.0195 9.51355 45.7646 9.44183 45.7502L9.44284 45.7502ZM9.64149 47.4436L8.06382 47.4115C7.93784 47.409 7.97759 47.6678 8.08157 47.67L9.66025 47.702C9.78622 47.7046 9.74547 47.4457 9.64149 47.4436ZM6.5112 45.0125C5.95823 45.1043 5.38388 45.1156 4.83753 44.9795C4.743 44.9556 4.77877 45.2134 4.86437 45.2341C5.42065 45.3734 6.01202 45.3615 6.57399 45.2698C6.6603 45.2556 6.60451 44.9984 6.5112 45.0125ZM6.78279 44.0018C6.1974 43.858 5.63915 43.6204 5.12973 43.2981C5.00526 43.2216 4.99198 43.4814 5.09177 43.5424C5.61679 43.8722 6.19186 44.1146 6.79455 44.2601C6.92395 44.2908 6.89926 44.0292 6.78279 44.0018ZM6.48519 41.5163C5.92969 41.486 5.43824 41.208 5.05103 40.82C4.97849 40.7475 4.99233 41.0019 5.04626 41.055C5.4413 41.4511 5.94953 41.7404 6.51603 41.771C6.61293 41.7769 6.56312 41.5208 6.4862 41.5163L6.48519 41.5163ZM6.07596 39.7016C5.56427 39.5822 5.04896 39.3957 4.66751 39.0198C4.55573 38.9095 4.5287 39.1571 4.60126 39.2285C5.00724 39.6279 5.55018 39.8329 6.09573 39.959C6.2102 39.9864 6.17849 39.7257 6.07596 39.7016ZM5.98699 38.1235C5.56033 38.0038 5.05276 37.8294 4.78941 37.45C4.71262 37.3404 4.73342 37.5969 4.76839 37.6476C5.05219 38.0545 5.56237 38.2479 6.02384 38.3773C6.08948 38.3956 6.05661 38.1429 5.98699 38.1235ZM5.68111 36.5379C5.0474 36.419 4.38666 36.3006 3.90502 35.8347C3.84226 35.7734 3.86522 36.0219 3.91229 36.0679C4.40275 36.543 5.06831 36.6695 5.71797 36.7917C5.79071 36.8052 5.74986 36.5513 5.68111 36.5379ZM5.61381 34.7302C4.94121 34.5065 4.26255 34.4827 3.5645 34.5765C3.45818 34.5914 3.51597 34.8486 3.62831 34.8329C4.31432 34.7408 4.97291 34.7682 5.63259 34.9876C5.7409 35.0228 5.71316 34.7632 5.61381 34.7302ZM7.21992 46.4622C7.21019 46.9411 7.19524 47.4309 6.98127 47.8707C6.93845 47.9598 7.05879 48.1903 7.11622 48.0714C7.34794 47.595 7.37642 47.0795 7.38802 46.5576C7.39029 46.4457 7.22343 46.2892 7.21992 46.4622ZM6.69294 46.6035C6.23016 47.2773 5.85352 47.9948 5.51335 48.738C5.48612 48.7985 5.57637 49.0334 5.61611 48.9482C5.94203 48.2145 6.33114 47.5106 6.77906 46.8443C6.82237 46.7802 6.72489 46.5572 6.69294 46.6035Z" fill="#ECF5FD"/>
<path d="M15.2775 29.0782L15.2936 28.2874L16.7244 26.19L16.7944 26.1914L16.7422 28.7609C16.72 28.7625 16.6979 28.7657 16.676 28.7705L16.6188 28.7834C16.5071 28.8151 16.4308 28.8766 16.4295 28.9436L16.4294 28.9486L16.4363 29.1017L15.2775 29.0782" fill="#1664A9"/>
<path d="M14.7595 29.0679L15.2924 28.2896L15.2935 28.2876L15.2774 29.0784L14.7595 29.0679Z" fill="#145D9C"/>
<path d="M16.379 39.9492L16.4168 38.0886L16.379 39.9492C16.3777 40.0112 16.4286 40.0683 16.5088 40.1059L16.5118 40.107L16.5118 40.108L16.5088 40.1079L16.5088 40.1059C16.4286 40.0683 16.3777 40.0112 16.379 39.9492ZM15.358 38.2132C15.3583 38.2009 15.3632 38.1893 15.3717 38.1804L15.8272 37.7156L15.3717 38.1804C15.3632 38.1893 15.3583 38.2009 15.358 38.2132" fill="#135894"/>
<path d="M15.8271 37.7151L16.1182 37.418L15.8271 37.7151Z" fill="#114F86"/>
<path d="M15.3578 38.2281C15.3668 38.2799 15.3877 38.329 15.4189 38.3714L15.4238 38.3775L15.4236 38.3845L15.4216 38.3854L15.4189 38.3714C15.3876 38.329 15.3667 38.28 15.3578 38.2281Z" fill="#135894"/>
<path d="M15.5141 38.3388C15.5148 38.3403 15.5158 38.3417 15.517 38.3429L15.5131 38.3388L15.5141 38.3388Z" fill="#0A2E4D"/>
<path d="M16.5561 34.6666C16.5752 34.6816 16.5961 34.6941 16.6183 34.7039L16.6223 34.705L16.6223 34.706L16.6183 34.7069L16.6183 34.7039C16.5961 34.6941 16.5752 34.6816 16.5561 34.6666V34.6666Z" fill="#0D3A62"/>
<path d="M17.224 31.9903L17.2242 31.9793L17.2373 31.9766L17.223 31.9903" fill="#78B6ED"/>
<path d="M15.4677 32.8109C15.468 32.7986 15.4729 32.7869 15.4814 32.7781L16.228 32.0161L16.228 32.0171L15.4814 32.7781C15.4732 32.787 15.469 32.7979 15.4677 32.8109V32.8109ZM15.4674 32.8258C15.4764 32.8777 15.4974 32.9267 15.5285 32.9691L15.5334 32.9752L15.5332 32.9832L15.5312 32.9842L15.5285 32.9691C15.497 32.9269 15.4761 32.8778 15.4674 32.8258V32.8258Z" fill="#145D9D"/>
<path d="M15.624 32.9384C15.6247 32.9399 15.6257 32.9413 15.6269 32.9425L15.623 32.9384L15.624 32.9384Z" fill="#0A2E4D"/>
</svg>
