<?xml version="1.0" encoding="utf-8"?>
<!-- Generator: Adobe Illustrator 24.1.1, SVG Export Plug-In . SVG Version: 6.00 Build 0)  -->
<svg version="1.1" id="Layer_1" xmlns="http://www.w3.org/2000/svg" xmlns:xlink="http://www.w3.org/1999/xlink" x="0px" y="0px"
	 viewBox="0 0 20 85" style="enable-background:new 0 0 20 85;" xml:space="preserve">
<style type="text/css">
	.st0{fill:#FAB851;}
	.st1{fill-rule:evenodd;clip-rule:evenodd;fill:#1C7ED4;}
	.st2{fill-rule:evenodd;clip-rule:evenodd;fill:#3B96E6;}
	.st3{fill:#5CA8EA;}
	.st4{fill:#1C80D7;}
	.st5{fill:#186FBB;}
	.st6{fill:#A6CFF3;}
	.st7{fill:#68AEEB;}
	.st8{fill:#429AE7;}
	.st9{fill:#82BCEF;}
	.st10{fill:#66ADEB;}
	.st11{fill:#1C7ED4;}
	.st12{fill:#1B7ED4;}
	.st13{fill:#ECF5FD;}
	.st14{fill:#1664A9;}
	.st15{fill:#145D9C;}
	.st16{fill:#135894;}
	.st17{fill:#114F86;}
	.st18{fill:#0A2E4D;}
	.st19{fill:#0D3A62;}
	.st20{fill:#78B6ED;}
	.st21{fill:#145D9D;}
</style>
<g>
	<path class="st0" d="M11.1,84.3l1.4-22.2l-1.4,0L11.1,84.3"/>
	<path class="st0" d="M11.2,84.3l1.4-22.2l-1.4,0L11.2,84.3z"/>
	<path class="st0" d="M13.5,81.7l-1.3-22.2l-1.3,0.2L13.5,81.7L13.5,81.7z M4.6,80.9l5.1-21.6l-1.3-0.2L4.6,80.9L4.6,80.9z M18,79.5
		l-3.6-21.9l-1.3,0.3L18,79.5"/>
	<path class="st0" d="M14.7,75.5l1.4-22.2l-1.4,0L14.7,75.5L14.7,75.5z M9.3,81.8l1.4-22.2l-1.4,0L9.3,81.8L9.3,81.8z M7.8,82.7
		l1.4-22.2l-1.4,0L7.8,82.7"/>
	<path class="st1" d="M6.2,0.2L5.4,36.8l0,0.7l0.1,2.7l0.1,2l0,1l0.1,2.9l0.1,1.1l0.1,1.6l0.1,2l0,1l0.1,2.9l0.2,4.6l1.2,0L8.9,0.2
		L6.2,0.2z M13.2,0.3L12,59.5l2.7,0.1l1.3-59.1L13.2,0.3z"/>
	<path class="st2" d="M3.7,0.1L3.9,3L4,5.7l0.1,2l0,1l0.1,2.9l0.1,2.7l0.1,2l0,1l0.1,2.9l0.1,2.7l0.1,2l0,1L5,28.9l0.1,2.7l0.1,1.6
		l0,0.5l0,1l0,0.2l0.1,1.8l0,0.2l0,0.7l0,0.5l0.1,1.6l0,0.6l0.1,1.1l0,0.9l0,1l0,0.5l0.1,1.5l0,0.9l0.1,1.1l0,0.9l0,0.6l0.1,2l0,1
		l0.1,2.9l0.1,2.7l0.1,1.9l9.8,0.2l1.3-59.1L3.7,0.1z"/>
	<path class="st3" d="M3.8,2.3l0,0.6L3.8,2.3z"/>
	<path class="st4" d="M1.8,0l4.4,0.1L6.1,3L3.9,3l0-0.6L3.7,0.1L1.8,0z M8.8,3.1l0.1-2.9l4.4,0.1l-0.1,2.9L8.8,3.1z"/>
	<path class="st5" d="M13.2,3.2l0.1-2.9l0.4,0c0.2,1,0.4,2,0.5,2.9L13.2,3.2z M6.2,0.1L6.1,3l2.7,0.1l0.1-2.9L6.2,0.1z"/>
	<path class="st6" d="M4,5.7l0,1L4,5.7z"/>
	<path class="st7" d="M4,5.7l2,0l0,2l-1.9,0l0-1L4,5.7L4,5.7z M8.7,7.8l0-2l4.4,0.1l0,2L8.7,7.8z M15.8,8l1.4-2l0,2L15.8,8z"/>
	<path class="st8" d="M13.1,7.9l0-2l1.5,0c0.1,0.8,0.2,1.5,0.3,2L13.1,7.9L13.1,7.9z M6,5.7l0,2l2.7,0.1l0-2L6,5.7z"/>
	<path class="st4" d="M4.1,8.7l1.8,0l-0.1,2.9l-1.7,0L4.1,8.7L4.1,8.7z M8.6,11.7l0.1-2.9l4.4,0.1l0,0.1l-0.4,0l-0.1,2.8L8.6,11.7
		L8.6,11.7z M15.8,9L15.8,9L17.2,9l-0.1,2.9l0.1-2.8L15.8,9L15.8,9z"/>
	<path class="st5" d="M13.1,9L13.1,9l2.7,0l0,0.1L13.1,9z M6,8.7l-0.1,2.9l2.7,0.1l0.1-2.9L6,8.7z"/>
	<path class="st7" d="M4.4,14.3l1.5,0l0,2l-1.3,0L4.4,14.3L4.4,14.3z M8.5,16.4l0-2l4,0.1l0,2L8.5,16.4z"/>
	<path class="st8" d="M5.9,14.3l0,2l2.7,0.1l0-2L5.9,14.3z"/>
	<path class="st3" d="M4.5,17.3l0.1,2.9L4.5,17.3z"/>
	<path class="st4" d="M4.5,17.3l1.3,0l-0.1,2.9l-1.1,0L4.5,17.3L4.5,17.3z M8.4,20.3l0.1-2.9l4,0.1l-0.1,2.9L8.4,20.3z"/>
	<path class="st5" d="M5.8,17.3l-0.1,2.9l2.7,0.1l0.1-2.9L5.8,17.3z"/>
	<path class="st6" d="M4.8,24.1l0,0.9l0,0L4.8,24.1L4.8,24.1z"/>
	<path class="st7" d="M4.8,22.9l0.9,0l0,2l-0.8,0l0-0.9L4.8,22.9z M8.3,25l0-2l4.4,0.1l0,2L8.3,25z M15.4,25.2l0-2l1.5,0l0,2
		L15.4,25.2z"/>
	<path class="st8" d="M12.8,23.1l0,2l2.7,0.1l0-2L12.8,23.1L12.8,23.1z M5.7,23l0,2L8.3,25l0-2L5.7,23z"/>
	<path class="st4" d="M4.9,26l0.7,0l-0.1,2.9l-0.5,0L4.9,26z M8.3,28.9L8.3,26l4.4,0.1L12.6,29L8.3,28.9z M15.3,28.3l0-2.1l1.4,0
		L15.3,28.3z"/>
	<path class="st5" d="M12.6,29l0.1-2.9l2.7,0.1l0,2.1l0,0l-0.5,0.8L12.6,29L12.6,29z M5.6,26l-0.1,2.9l2.7,0.1L8.3,26L5.6,26z"/>
	<path class="st7" d="M5.2,31.6l0.3,0l0,2l-0.2,0l0-0.5L5.2,31.6L5.2,31.6z M8.2,33.7l0-2l4.4,0.1l0,0.6l-0.8,1.1l0,0.3L8.2,33.7"/>
	<path class="st8" d="M12.6,32.4l0-0.6l0.4,0L12.6,32.4L12.6,32.4z M5.5,31.6l0,2l2.7,0.1l0-2L5.5,31.6z"/>
	<path class="st4" d="M5.3,34.6l0.1,0l0,2.2l0,0.7h0l0-0.7l0-0.2l-0.1-1.8L5.3,34.6L5.3,34.6z M8.1,37.6l0.1-2.9l8.2,0.2l0.2,2.9
		L8.1,37.6z"/>
	<path class="st5" d="M5.4,36.8l0-2.2l2.7,0.1l-0.1,2.9l-2.7-0.1L5.4,36.8z"/>
	<path class="st7" d="M5.5,40.2l0.1,2l0,0h0l0-0.9L5.5,40.2L5.5,40.2z M8,42.3l0-2l4.2,0.1l0.1,1.5l0,0.6L8,42.3z"/>
	<path class="st8" d="M12.3,42.4l0-0.6l0,0L12.3,42.4L12.3,42.4z M5.5,40.2L8,40.3l0,2l-2.3,0l0,0L5.5,40.2"/>
	<path class="st4" d="M7.9,46.2l0.1-2.9l4.4,0.1l-0.1,2.9L7.9,46.2z M15,46.3l0-0.4l0.4,0.4L15,46.3z"/>
	<path class="st5" d="M12.3,46.3l0.1-2.9l0.1,0l0,0.2L15,46l0,0l0,0.4L12.3,46.3L12.3,46.3z M5.7,43.2l2.3,0l-0.1,2.9l-2.1,0l0-0.9
		l-0.1-1.5L5.7,43.2L5.7,43.2z"/>
	<path class="st7" d="M7.8,50.9l0-2l4.4,0.1l0,2L7.8,50.9z M14.9,51.1l0-2l1.5,0l0,2L14.9,51.1z"/>
	<path class="st8" d="M12.2,49l0,2l2.7,0.1l0-2L12.2,49L12.2,49z M5.9,48.9l1.9,0l0,2l-1.8,0L5.9,48.9z"/>
	<path class="st4" d="M7.7,54.8l0.1-2.9l4.4,0.1l-0.1,2.9L7.7,54.8z M14.8,55l0.1-2.9l1.5,0L16.2,55L14.8,55z"/>
	<path class="st5" d="M12.1,52l-0.1,2.9l2.7,0.1l0.1-2.9L12.1,52L12.1,52z M6.1,51.9l1.7,0l-0.1,2.9l-1.5,0L6.1,51.9z"/>
	<path class="st9" d="M6.4,59.4l1.2,0l0-1.9l4.4,0.1l0,1.9l2.7,0.1l0-1.9l1.5,0l0,1.9L6.4,59.4z"/>
	<path class="st10" d="M12,57.6l0,1.9l2.7,0.1l0-1.9L12,57.6L12,57.6z M6.3,57.5l1.3,0l0,1.9l-1.2,0L6.3,57.5z"/>
	<path class="st11" d="M12.7,9l-0.3,14.1l4.5,0.1l0.3-14.1L12.7,9z"/>
	<path class="st12" d="M8.7,47.3l-2.8-0.1l-0.1-1.1l-0.1-2.9l0-1l-0.1-2l-0.1-2.7l0-0.7l-0.1-2.2l0-1l0-0.5L9,33.2L8.7,47.3"/>
	<path class="st13" d="M18.3,10.1c-0.7,0.2-1.4,0.3-2.2,0.4c-0.1,0,0,0.3,0.1,0.3c0.7-0.1,1.4-0.2,2.2-0.4
		C18.5,10.3,18.4,10.1,18.3,10.1z M17.6,11.7c-0.1,0.1-0.2,0.1-0.4,0.1c-0.2,0-0.4,0-0.5,0c-0.1,0,0,0.3,0.1,0.3c0.2,0,0.4,0,0.5,0
		c0.1,0,0.3,0,0.4-0.1C17.8,11.8,17.7,11.6,17.6,11.7z M18.1,13.3c-0.5,0.1-1,0.2-1.5,0.2c-0.1,0,0,0.3,0.1,0.3c0.5,0,1-0.1,1.5-0.2
		C18.2,13.6,18.1,13.3,18.1,13.3z M17.9,14.9c-0.6,0-1.2,0.1-1.7,0.2c-0.1,0-0.1,0.3,0.1,0.3c0.5-0.1,1.1-0.2,1.7-0.2
		C18.1,15.2,18,14.9,17.9,14.9z M17.6,16.6c-0.4,0.1-0.9,0.1-1.4,0.2c-0.1,0,0,0.3,0.1,0.3c0.4-0.1,0.9-0.1,1.4-0.2
		C17.8,16.8,17.7,16.6,17.6,16.6z M17.6,18.2c-0.4,0-0.9,0.1-1.3,0.2c-0.1,0,0,0.3,0.1,0.3c0.4-0.1,0.8-0.2,1.2-0.2
		C17.8,18.4,17.7,18.2,17.6,18.2z M17.5,20.1c-0.5,0-0.9,0-1.4,0.1c-0.1,0,0,0.3,0.1,0.3c0.4-0.1,0.9-0.1,1.4-0.1
		C17.6,20.4,17.5,20.1,17.5,20.1z M18,21.6c-0.6,0.1-1.3,0.2-1.9,0.3c-0.1,0-0.1,0.3,0.1,0.3c0.6-0.1,1.3-0.2,1.9-0.3
		C18.2,21.8,18.1,21.6,18,21.6z M15.8,8c0.1,0.8,0.2,1.6,0.2,2.5c0,0.1,0.1,0.3,0.1,0.1c0-0.8-0.1-1.7-0.2-2.5
		C15.9,7.9,15.8,7.8,15.8,8z M14.4,8.7c0.1,0.6,0.3,1.1,0.4,1.7c0,0.2,0.1,0.1,0.1,0c-0.1-0.6-0.3-1.1-0.4-1.7
		C14.5,8.5,14.4,8.5,14.4,8.7z M13.7,9.5c0-0.4,0.1-0.8,0.2-1.2c0-0.1-0.1-0.3-0.1-0.2c-0.1,0.4-0.2,0.8-0.3,1.3
		C13.6,9.5,13.7,9.7,13.7,9.5z M13.5,11.7c-0.5,0.1-1.1,0.1-1.6,0.2c-0.1,0-0.1,0.3,0.1,0.3c0.5-0.1,1.1-0.1,1.6-0.2
		C13.6,11.9,13.6,11.6,13.5,11.7z M13.1,13.1c-0.4,0.1-0.8,0.2-1.2,0.2c-0.1,0-0.1,0.3,0,0.3c0.4,0,0.8-0.1,1.3-0.2
		C13.3,13.4,13.2,13.1,13.1,13.1z M13.4,14.7l-1,0.3c-0.1,0,0,0.3,0.1,0.3l1-0.3C13.6,14.9,13.5,14.7,13.4,14.7z M13.7,16.9
		c-0.4,0.1-0.7,0.2-1,0.4c-0.1,0,0,0.3,0.1,0.2c0.3-0.2,0.7-0.3,1-0.4C13.8,17.1,13.8,16.8,13.7,16.9z M13.8,19.1
		c-0.4,0-0.8,0.1-1.2,0.1c-0.1,0-0.1,0.3,0,0.3c0.4,0,0.8-0.1,1.2-0.1C13.9,19.4,13.9,19.1,13.8,19.1z M13.3,20.5
		c-0.4,0-0.8,0.1-1.1,0.1c0,0,0,0.3,0.1,0.3c0.4,0,0.8-0.1,1.1-0.1C13.4,20.7,13.3,20.5,13.3,20.5z M13.1,21.5
		c-0.5,0.1-1,0.2-1.6,0.2c-0.1,0,0,0.3,0.1,0.3c0.5,0,1.1-0.1,1.6-0.2C13.3,21.7,13.2,21.5,13.1,21.5z M13.1,22.6
		c-0.4,0.1-0.8,0.1-1.1,0.2c-0.1,0,0,0.3,0.1,0.3c0.4-0.1,0.8-0.1,1.1-0.2C13.3,22.8,13.2,22.6,13.1,22.6z M15.1,21.9
		c0,0.6,0.1,1.1,0.1,1.7c0,0.1,0.1,0.3,0.1,0.2c0-0.6-0.1-1.1-0.1-1.7C15.2,22,15.1,21.8,15.1,21.9z M14.2,22.4l0,1.6
		c0,0.1,0.2,0.2,0.2,0l0-1.6C14.4,22.3,14.2,22.2,14.2,22.4z M7.8,32.2C8,33,8.1,33.8,8.1,34.7c0,0.1,0.2,0.2,0.2,0
		c0-0.9-0.1-1.7-0.3-2.5C7.9,32,7.8,32.1,7.8,32.2z M6.8,32.4c-0.1,0.5-0.1,0.9-0.2,1.4c0,0.1,0.2,0.2,0.2,0c0-0.4,0-0.9,0.1-1.3
		C7,32.5,6.8,32.3,6.8,32.4z M10.3,36.4l-2.3,0c-0.1,0-0.1,0.3,0,0.3l2.3,0C10.4,36.7,10.4,36.4,10.3,36.4z M9.7,38.2
		c-0.6,0.1-1.1,0.1-1.7,0.1c-0.1,0-0.1,0.3,0,0.3c0.6,0,1.1,0,1.7-0.1C9.9,38.4,9.8,38.2,9.7,38.2z M9.5,40c-0.4,0-0.8,0.1-1.2,0.1
		c-0.1,0-0.1,0.3,0,0.3c0.4,0,0.8-0.1,1.2-0.1C9.7,40.3,9.6,40,9.5,40z M9.5,42c-0.4,0-0.8-0.1-1.2-0.1c0,0,0,0.3,0.1,0.3
		c0.4,0,0.8,0.1,1.2,0.1C9.7,42.3,9.6,42,9.5,42z M9.4,43.8c-0.5-0.1-1-0.1-1.2,0.5c0,0.1,0.1,0.3,0.1,0.2C8.5,43.9,9,44,9.4,44.1
		C9.5,44.1,9.5,43.9,9.4,43.8z M9.5,45.8c-0.4-0.1-1-0.2-1.3,0.2c0,0.1,0.1,0.3,0.1,0.2c0.2-0.3,0.9-0.3,1.2-0.2
		C9.6,46,9.6,45.8,9.5,45.8L9.5,45.8z M9.7,47.5l-1.6,0c-0.1,0-0.1,0.3,0,0.3l1.6,0C9.8,47.7,9.8,47.5,9.7,47.5z M6.5,45
		c-0.6,0.1-1.1,0.1-1.7,0c-0.1,0-0.1,0.2,0,0.3c0.6,0.1,1.1,0.1,1.7,0C6.7,45.3,6.6,45,6.5,45z M6.8,44c-0.6-0.1-1.1-0.4-1.7-0.7
		c-0.1-0.1-0.1,0.2,0,0.2c0.5,0.3,1.1,0.6,1.7,0.7C7,44.3,6.9,44,6.8,44z M6.5,41.5c-0.6,0-1-0.3-1.4-0.7C5,40.8,5,41,5.1,41.1
		c0.4,0.4,0.9,0.7,1.5,0.7C6.7,41.8,6.6,41.5,6.5,41.5L6.5,41.5z M6.1,39.7c-0.5-0.1-1-0.3-1.4-0.7c-0.1-0.1-0.1,0.1-0.1,0.2
		c0.4,0.4,0.9,0.6,1.5,0.7C6.3,40,6.2,39.7,6.1,39.7z M6,38.1c-0.4-0.1-0.9-0.3-1.2-0.7c-0.1-0.1-0.1,0.1,0,0.2
		c0.3,0.4,0.8,0.6,1.3,0.7C6.1,38.4,6.1,38.1,6,38.1z M5.7,36.5c-0.6-0.1-1.3-0.2-1.8-0.7c-0.1-0.1,0,0.2,0,0.2
		c0.5,0.5,1.2,0.6,1.8,0.7C5.8,36.8,5.8,36.6,5.7,36.5z M5.7,34.7c-0.7-0.2-1.4-0.2-2-0.2c-0.1,0,0,0.3,0.1,0.3
		c0.7-0.1,1.3-0.1,2,0.2C5.8,35,5.8,34.8,5.7,34.7z M7.3,46.5c0,0.5,0,1-0.2,1.4c0,0.1,0.1,0.3,0.1,0.2c0.2-0.5,0.3-1,0.3-1.5
		C7.4,46.5,7.3,46.3,7.3,46.5z M6.7,46.6c-0.5,0.7-0.8,1.4-1.2,2.1c0,0.1,0.1,0.3,0.1,0.2c0.3-0.7,0.7-1.4,1.2-2.1
		C6.9,46.8,6.8,46.6,6.7,46.6z"/>
	<path class="st14" d="M15.3,29.1l0-0.8l1.4-2.1l0.1,0l-0.1,2.6c0,0,0,0-0.1,0l-0.1,0c-0.1,0-0.2,0.1-0.2,0.2l0,0l0,0.2L15.3,29.1"
		/>
	<path class="st15" d="M14.8,29.1l0.5-0.8l0,0l0,0.8L14.8,29.1z"/>
	<path class="st16" d="M16.4,40l0-1.9L16.4,40c0,0.1,0,0.1,0.1,0.2l0,0l0,0l0,0l0,0C16.5,40.1,16.4,40,16.4,40z M15.4,38.2
		C15.4,38.2,15.4,38.2,15.4,38.2l0.5-0.5L15.4,38.2C15.4,38.2,15.4,38.2,15.4,38.2"/>
	<path class="st17" d="M15.9,37.7l0.3-0.3L15.9,37.7z"/>
	<path class="st16" d="M15.4,38.2c0,0.1,0,0.1,0.1,0.1l0,0l0,0l0,0l0,0C15.4,38.3,15.4,38.3,15.4,38.2z"/>
	<path class="st18" d="M15.6,38.4C15.6,38.4,15.6,38.4,15.6,38.4L15.6,38.4L15.6,38.4z"/>
	<path class="st19" d="M16.6,34.7C16.6,34.7,16.6,34.7,16.6,34.7L16.6,34.7L16.6,34.7L16.6,34.7L16.6,34.7
		C16.6,34.7,16.6,34.7,16.6,34.7L16.6,34.7z"/>
	<path class="st20" d="M17.3,32L17.3,32L17.3,32L17.3,32"/>
	<path class="st21" d="M15.5,32.8C15.5,32.8,15.5,32.8,15.5,32.8l0.8-0.8v0L15.5,32.8C15.5,32.8,15.5,32.8,15.5,32.8L15.5,32.8z
		 M15.5,32.8c0,0.1,0,0.1,0.1,0.1l0,0l0,0l0,0l0,0C15.5,32.9,15.5,32.9,15.5,32.8L15.5,32.8z"/>
	<path class="st18" d="M15.7,33C15.7,33,15.7,33,15.7,33L15.7,33L15.7,33z"/>
</g>
</svg>
