<?xml version="1.0" encoding="utf-8"?>
<!-- Generator: Adobe Illustrator 24.1.1, SVG Export Plug-In . SVG Version: 6.00 Build 0)  -->
<svg version="1.1" id="Layer_1" xmlns="http://www.w3.org/2000/svg" xmlns:xlink="http://www.w3.org/1999/xlink" x="0px" y="0px"
	 viewBox="0 0 51 143" style="enable-background:new 0 0 51 143;" xml:space="preserve">
<style type="text/css">
	.st0{fill:#B86E37;}
	.st1{fill:#3B96E6;}
	.st2{fill:#1C7ED4;}
	.st3{fill:#8BC1F0;}
	.st4{fill:#78B7EE;}
	.st5{fill:#5CA8EA;}
	.st6{fill:#1C80D7;}
	.st7{fill:#186FBB;}
	.st8{fill:#68AEEB;}
	.st9{fill:#429AE7;}
	.st10{fill:#A6CFF3;}
	.st11{fill:#1B7ED4;}
	.st12{fill:#ECF5FD;}
	.st13{fill:#155E9E;}
	.st14{fill:#1767AE;}
</style>
<path class="st0" d="M21.5,142.5h6.6V34.6h-6.6V142.5L21.5,142.5z"/>
<path class="st1" d="M41.5,20.6l0.1-2l1-13.7h-36l0.9,13.8l0.1,1.8l0.2,2.7L8,27.7l0.2,2.7l0.1,1.9l0.2,2.5v0.5l0.1,1.8v0.4L8.7,39
	l0.1,1.2l0.1,1.7l0.2,2.7L9.4,49l0.2,2.7L9.7,56l0.2,2.7v0.8l0.2,3.6l0.2,2.7l0.3,4.4l0.2,2.7L11,77h28.2l0.2-4.1l0.1-2.7l0.1-3.2
	l0.1-1.2v-0.1l0.1-2.1V63v-0.7l0.1-1.6l0.1-2l0.1-1.4l0.1-1.3l0.2-4.4l0.1-2.7l0.2-4.4V44l0,0l0.1-2.2l0.2-4.4l0.1-2.7l0.2-4.4v-0.2
	l0.1-1.4v-1.1V27v-1.2l0.1-2v-0.5L41.5,20.6z"/>
<path class="st2" d="M6.6,9.2h34.9V6.5H6.6V9.2z M41.5,20.6l-0.1,2.7H7.8l-0.2-2.7H41.5z M41.3,27.7l-0.1,2.5v0.2h-33L8,27.7H41.3z
	 M41,34.8l-0.1,2.7H8.6l-0.2-2.7H41z M40.7,41.8l-0.1,2.7H9.1l-0.2-2.7H40.7z M40.4,48.9l-0.1,2.7H9.5l-0.2-2.7H40.4z M40.1,56
	L40,57.4v1.3H9.9L9.7,56H40.1z M39.8,63.1l-0.1,2.7H10.3l-0.2-2.7C10.1,63.1,39.8,63.1,39.8,63.1z M39.5,70.2l-0.1,2.7H10.8
	l-0.2-2.7H39.5z"/>
<path class="st2" d="M7.6,16.2h34l0.5-2.7H7.6V16.2z"/>
<path class="st3" d="M10,59.5v-0.8v-0.5v0.5V59.5L10,59.5"/>
<path class="st4" d="M9.4,51.1L9.3,49l-0.1-1.8L9.3,49L9.4,51.1z M8.9,42.7l-0.1-0.9l-0.1-1.1l0,0l0.1,1.1L8.9,42.7z"/>
<path class="st3" d="M9.2,47.1L9.2,47.1L9,44.5l-0.1-1.8L9,44.5L9.2,47.1L9.2,47.1z M8.8,40.8l-0.2-3.3l-0.1-1.6l0.1,1.6L8.7,39
	l0.1,1.2V40.8L8.8,40.8z"/>
<path class="st5" d="M8,27.9v-0.2l-0.3-4.4l-0.2-2.7l-0.1-1.8l0.1,1.8l0.2,2.7L8,27.7l0,0V27.9L8,27.9z M7.3,18.8H7H7.3z"/>
<path class="st6" d="M10,59.5v-0.8l0,0V59.5z M9.8,57.6L9.7,56l-0.3-4.4V51v0.6H10V56H9.7L9.8,57.6L9.8,57.6z M10,48.9H9.3l-0.1-1.8
	L9,44.5h1V48.9z M10,41.8H8.9l-0.1-1.1v-0.6L8.7,39l-0.1-1.6H10V41.8z M8.5,35.1v-0.3l-0.2-2.5l-0.1-1.9l0,0l0,0H10v4.4H8.5V35.1
	L8.5,35.1z M10,27.7H8l-0.3-4.4H10V27.7L10,27.7z M10,20.6H7.6l-0.1-1.8H7.3H7v-2.5h3V20.6L10,20.6z M10,13.5H7V9.9
	c1,0.1,1.9,0.2,3,0.3V13.5L10,13.5z"/>
<path class="st7" d="M7,16.2h3v-2.7H7V16.2z M10,23.3H7.8l-0.2-2.7H10V23.3z M10,30.4H8.2l0,0L8,27.9v-0.2h2V30.4L10,30.4z M10,37.5
	H8.6l-0.1-1.6L8.4,35v-0.3H10V37.5L10,37.5z M10,44.5H9.1L9,42.7l-0.1-0.9H10V44.5z M10,51.6H9.5V51l-0.1-2.1H10V51.6z M10,58.7
	L10,58.7l-0.1-0.5v-0.6L9.7,56H10V58.7z"/>
<path class="st8" d="M14.7,77h-2v-4.1h2V77z M14.7,70.2h-2v-4.4h2V70.2z M14.7,63.1h-2v-4.4h2V63.1z M14.7,56h-2v-4.4h2V56z
	 M14.7,48.9h-2v-4.4h2V48.9z M14.7,41.8h-2v-4.4h2V41.8z M14.7,34.8h-2v-4.4h2V34.8z M14.7,27.7h-2v-4.4h2V27.7z M14.7,20.6h-2v-4.4
	h2V20.6L14.7,20.6z M14.7,13.5h-2v-2.9c0.7,0.1,1.4,0.2,2,0.3V13.5L14.7,13.5z"/>
<path class="st9" d="M12.7,16.2h2v-2.7h-2V16.2z M12.7,23.3h2v-2.7h-2V23.3z M12.7,30.4h2v-2.7h-2V30.4z M12.7,37.5h2v-2.7h-2V37.5z
	 M12.7,44.5h2v-2.7h-2V44.5z M12.7,51.6h2v-2.7h-2V51.6z M12.7,58.7h2V56h-2V58.7z M12.7,65.8h2v-2.7h-2V65.8z M12.7,72.9h2v-2.7h-2
	V72.9z"/>
<path class="st6" d="M18.6,77h-2.9v-4.1h2.9V77z M18.6,70.2h-2.9v-4.4h2.9V70.2z M18.6,63.1h-2.9v-4.4h2.9V63.1z M18.6,56h-2.9v-4.4
	h2.9V56z M18.6,48.9h-2.9v-4.4h2.9V48.9z M18.6,41.8h-2.9v-4.4h2.9V41.8z M18.6,34.8h-2.9v-4.4h2.9V34.8z M18.6,27.7h-2.9v-4.4h2.9
	V27.7z M18.6,20.6h-2.9v-4.4h2.9V20.6L18.6,20.6z M18.6,13.5h-2.9V11c1,0.2,1.9,0.3,2.9,0.5V13.5"/>
<path class="st7" d="M15.7,16.2h2.9v-2.7h-2.9C15.7,13.5,15.7,16.2,15.7,16.2z M15.7,23.3h2.9v-2.7h-2.9
	C15.7,20.6,15.7,23.3,15.7,23.3z M15.7,30.4h2.9v-2.7h-2.9C15.7,27.7,15.7,30.4,15.7,30.4z M15.7,37.5h2.9v-2.7h-2.9
	C15.7,34.8,15.7,37.5,15.7,37.5z M15.7,44.5h2.9v-2.7h-2.9C15.7,41.8,15.7,44.5,15.7,44.5z M15.7,51.6h2.9v-2.7h-2.9
	C15.7,48.9,15.7,51.6,15.7,51.6z M15.7,58.7h2.9V56h-2.9C15.7,56,15.7,58.7,15.7,58.7z M15.7,65.8h2.9v-2.7h-2.9
	C15.7,63.1,15.7,65.8,15.7,65.8z M15.7,72.9h2.9v-2.7h-2.9C15.7,70.2,15.7,72.9,15.7,72.9z"/>
<path class="st8" d="M23.3,77h-2v-4.1h2V77z M23.3,70.2h-2v-4.4h2V70.2z M23.3,63.1h-2v-4.4h2V63.1z M23.3,56h-2v-4.4h2V56z
	 M23.3,48.9h-2v-4.4h2V48.9z M23.3,41.8h-2v-4.4h2V41.8z M23.3,34.8h-2v-4.4h2V34.8z M23.3,27.7h-2v-4.4h2V27.7z M23.3,20.6h-2v-4.4
	h2V20.6L23.3,20.6z M23.3,13.5h-2v-1.3c0.7,0.2,1.4,0.4,2,0.6V13.5L23.3,13.5z"/>
<path class="st9" d="M21.3,16.2h2v-2.7h-2V16.2z M21.3,23.3h2v-2.7h-2V23.3z M21.3,30.4h2v-2.7h-2V30.4z M21.3,37.5h2v-2.7h-2V37.5z
	 M21.3,44.5h2v-2.7h-2V44.5z M21.3,51.6h2v-2.7h-2V51.6z M21.3,58.7h2V56h-2V58.7z M21.3,65.8h2v-2.7h-2V65.8z M21.3,72.9h2v-2.7h-2
	V72.9z"/>
<path class="st6" d="M27.2,77h-0.7v-4.1h0.7V77z M27.2,70.2h-0.7v-4.4h0.7V70.2z M27.2,63.1h-0.7v-4.4h0.7V63.1z M27.2,56h-0.7v-4.4
	h0.7V56z M27.2,48.9h-0.7v-4.4h0.7V48.9z M27.2,41.8h-0.7v-4.4h0.7V41.8z M27.2,34.8h-0.7v-4.4h0.7V34.8z M27.2,27.7h-0.7v-4.4h0.7
	V27.7z M27.2,20.6h-0.7v-4.4h0.7V20.6L27.2,20.6z M27.2,13.5h-0.7V13c0.2-0.1,0.4-0.2,0.7-0.3V13.5z M26.6,12.1L26.6,12.1
	c0.2-0.2,0.3-0.5,0.5-0.7C26.9,11.7,26.7,11.9,26.6,12.1z"/>
<path class="st7" d="M26.6,16.2h0.7v-2.7h-0.7V16.2z M26.6,23.3h0.7v-2.7h-0.7V23.3z M26.6,30.4h0.7v-2.7h-0.7V30.4z M26.6,37.5h0.7
	v-2.7h-0.7V37.5z M26.6,44.5h0.7v-2.7h-0.7V44.5z M26.6,51.6h0.7v-2.7h-0.7V51.6z M26.6,58.7h0.7V56h-0.7V58.7z M26.6,65.8h0.7v-2.7
	h-0.7V65.8z M26.6,72.9h0.7v-2.7h-0.7V72.9z"/>
<path class="st8" d="M31.9,77h-2v-4.1h2V77z M31.9,70.2h-2v-4.4h2V70.2z M31.9,63.1h-2v-4.4h2V63.1z M31.9,56h-2v-4.4h2V56z
	 M31.9,48.9h-2v-4.4h2V48.9z M31.9,41.8h-2v-4.4h2V41.8z M31.9,34.8h-2v-4.4h2V34.8z M31.9,27.7h-2v-4.4h2V27.7z M31.9,20.6h-2v-4.4
	h2V20.6L31.9,20.6z M31.9,13.5h-2v-1.8c0.6-0.2,1.3-0.4,2-0.6V13.5L31.9,13.5z"/>
<path class="st9" d="M29.9,16.2h2v-2.7h-2V16.2z M29.9,23.3h2v-2.7h-2V23.3z M29.9,30.4h2v-2.7h-2V30.4z M29.9,37.5h2v-2.7h-2V37.5z
	 M29.9,44.5h2v-2.7h-2V44.5z M29.9,51.6h2v-2.7h-2V51.6z M29.9,58.7h2V56h-2V58.7z M29.9,65.8h2v-2.7h-2V65.8z M29.9,72.9h2v-2.7h-2
	V72.9z"/>
<path class="st6" d="M35.8,77h-2.9v-4.1h2.9V77z M35.8,70.2h-2.9v-4.4h2.9V70.2z M35.8,63.1h-2.9v-4.4h2.9V63.1z M35.8,56h-2.9v-4.4
	h2.9V56z M35.8,48.9h-2.9v-4.4h2.9V48.9z M35.8,41.8h-2.9v-4.4h2.9V41.8z M35.8,34.8h-2.9v-4.4h2.9V34.8z M35.8,27.7h-2.9v-4.4h2.9
	V27.7z M35.8,20.6h-2.9v-4.4h2.9V20.6L35.8,20.6z M35.8,13.5h-2.9v-2.8c0.9-0.3,1.9-0.5,2.9-0.8V13.5z"/>
<path class="st7" d="M32.9,16.2h2.9v-2.7h-2.9V16.2z M32.9,23.3h2.9v-2.7h-2.9V23.3z M32.9,30.4h2.9v-2.7h-2.9V30.4z M32.9,37.5h2.9
	v-2.7h-2.9V37.5z M32.9,44.5h2.9v-2.7h-2.9V44.5z M32.9,51.6h2.9v-2.7h-2.9V51.6z M32.9,58.7h2.9V56h-2.9V58.7z M32.9,65.8h2.9v-2.7
	h-2.9V65.8z M32.9,72.9h2.9v-2.7h-2.9V72.9z"/>
<path class="st10" d="M39.3,74.9l0.1-2.1l0,0v-0.5v0.5L39.3,74.9z M39.6,68.4l0.1-1.4v-0.7V67L39.6,68.4L39.6,68.4z M39.7,65.1
	l0.1-2l0,0V63v0.1L39.7,65.1L39.7,65.1z M39.9,60.7l0.1-2v-0.9v0.9L39.9,60.7z M40,57.2V56l0,0l0.1-2.7V56L40,57.2z M40.4,48.8
	l0.2-4.2L40.4,48.8z"/>
<path class="st8" d="M39.2,77h-0.7v-4.1h0.8L39.2,75V77L39.2,77z M39.4,72.4l0.1-2.2h-0.9v-4.4h1.1v-0.7v0.7v0.5V67l-0.1,1.4
	l-0.1,1.8L39.4,72.4z M39.8,63.1h-1.2v-4.4H40l-0.1,2L39.8,63.1L39.8,63.1L39.8,63.1L39.8,63.1z M40.1,56h-1.5v-4.4h1.7l0.1-2.7
	h-1.8v-4.4h2l-0.2,4.2v0.2l-0.1,2.7l-0.1,1.7L40.1,56z M40.6,41.8h-2v-4.4h2V41.8z M40.6,34.8h-2v-4.4h2V34.8z M40.6,27.7h-2v-4.4h2
	V27.7z M40.6,20.6h-2v-4.4h2V20.6L40.6,20.6z M40.6,13.5h-2V9.4l1-0.2h1.1L40.6,13.5L40.6,13.5z"/>
<path class="st9" d="M40.6,9.2h-1.1L40.6,9V9.2z M38.5,16.2h2v-2.7h-2V16.2z M38.5,23.3h2v-2.7h-2V23.3z M38.5,30.4h2v-2.7h-2V30.4z
	 M38.5,37.5h2v-2.7h-2V37.5z M40.6,44.5h-2v-2.7h2V44V44.5L40.6,44.5z M40.3,51.6h-1.7v-2.7h1.8L40.3,51.6L40.3,51.6z M40,58.7h-1.4
	V56h1.5v1.2v0.2v0.4L40,58.7L40,58.7z M39.7,65.8h-1.1v-2.7h1.2l-0.1,2L39.7,65.8L39.7,65.8z M39.4,72.9h-0.8v-2.7h0.9l-0.1,2.2
	L39.4,72.9z"/>
<path class="st11" d="M17.1,32.2v9.6H8.9l-0.3-4.4l-0.2-2.7l-0.2-2.5H17.1"/>
<path class="st2" d="M40,57.4v1.3l-0.2,4.4l-0.1,2.7L39.6,67h-7.3v-9.6H40"/>
<path class="st1" d="M41.5,20.6l-0.1,2.7l-0.2,4.4l-0.1,2.5h-7.9v-9.6H41.5"/>
<path class="st12" d="M9,31.3c0.2,0.7,0.1,1.4,0.1,2.1c0,0.1,0.5,0,0.5-0.1c0-0.7,0.1-1.4-0.1-2.1C9.5,31.1,9,31.2,9,31.3L9,31.3z
	 M11.3,31.5c-0.2,0.7-0.2,1.4-0.2,2.1c0,0.1,0.3,0,0.3-0.1c0-0.7,0-1.4,0.2-2.1C11.5,31.4,11.3,31.4,11.3,31.5L11.3,31.5z
	 M13.5,31.5c-0.1,0.6-0.1,1.1-0.1,1.7c0,0,0.3,0,0.3-0.1c0-0.6,0-1.1,0.1-1.7C13.7,31.4,13.5,31.4,13.5,31.5z M15.5,31.2v2
	c0,0.1,0.3,0.1,0.3,0v-2C15.8,31.1,15.5,31.1,15.5,31.2L15.5,31.2z M16.3,33.5c0.8,0.1,1.6,0.1,2.4,0c0.1,0,0.2-0.2,0-0.2
	c-0.8,0.1-1.6,0.1-2.3,0C16.3,33.3,16.2,33.5,16.3,33.5L16.3,33.5z M16.7,35c0.5,0.1,0.9,0.1,1.4,0c0.1,0,0.2-0.2,0-0.2
	c-0.4,0.1-0.9,0.1-1.3,0C16.8,34.9,16.6,35,16.7,35L16.7,35z M15.8,36c0.6,0.4,1.3,0.4,2.1,0.3c0.2,0,0.1-0.2,0-0.2
	c-0.6,0.1-1.3,0.1-1.8-0.2C15.9,35.7,15.7,35.9,15.8,36L15.8,36z M16.3,37.5c0.5,0.2,0.9,0.2,1.4,0.2c0.1,0,0.3-0.1,0.2-0.1
	c-0.4,0-0.9,0-1.3-0.2C16.4,37.4,16.3,37.5,16.3,37.5z M16.4,39c0.4,0.3,0.8,0.4,1.3,0.3c0.2,0,0.1-0.2,0-0.2c-0.2,0-0.4,0-0.6,0
	s-0.4-0.1-0.5-0.2C16.5,38.8,16.3,38.9,16.4,39L16.4,39z M16.1,40.4c0.5,0.1,1,0.2,1.5,0.2c0.1,0,0.3-0.2,0.1-0.2
	c-0.5,0-0.9-0.1-1.4-0.2C16.1,40.3,15.9,40.4,16.1,40.4z M15.1,41.4v1.5c0,0,0.3,0,0.3-0.1v-1.5C15.3,41.3,15.1,41.3,15.1,41.4z
	 M13.6,40.9v1.8c0,0.1,0.3,0,0.3-0.1v-1.8C13.8,40.8,13.6,40.8,13.6,40.9z M12.7,41.4v1.3c0,0.1,0.3,0,0.3-0.1v-1.3
	C13,41.3,12.7,41.3,12.7,41.4z M11.3,41.2c0,0.5,0,1.1,0.1,1.6c0,0.1,0.3,0,0.3-0.1c-0.1-0.5-0.1-1.1-0.1-1.6
	C11.5,41.1,11.3,41.1,11.3,41.2L11.3,41.2z M9.8,41.3c-0.1,0.5-0.1,1,0,1.5c0,0,0.3,0,0.3-0.1c-0.1-0.5-0.1-1,0-1.5L9.8,41.3z
	 M40.7,20.2c0,0.6,0,1.3-0.1,1.9c0,0.1,0.2,0.1,0.3,0c0.1-0.6,0.1-1.3,0.1-1.9C40.9,20,40.7,20.1,40.7,20.2z M39.1,19.4
	c0,0.7-0.1,1.4-0.1,2.1c0,0.1,0.3,0.1,0.3,0c0-0.7,0.1-1.4,0.1-2.1C39.4,19.2,39.1,19.3,39.1,19.4z M37.4,19.7
	c-0.1,0.4-0.3,0.8-0.4,1.2c-0.1,0.1,0.2,0.1,0.2,0c0.2-0.4,0.3-0.8,0.5-1.3C37.7,19.6,37.4,19.6,37.4,19.7z M35.4,20
	c-0.2,0.6-0.3,1.2-0.5,1.8c0,0.1,0.2,0,0.3,0c0.1-0.6,0.2-1.2,0.5-1.8C35.7,19.8,35.4,19.9,35.4,20z M33.9,20.5
	c0.1,0.6,0,1.2-0.2,1.7c0,0,0.2,0,0.3,0c0.2-0.5,0.3-1.1,0.2-1.7C34.2,20.4,33.9,20.5,33.9,20.5z M32.6,23.7h2.3
	c0.1,0,0.3-0.1,0.1-0.1h-2.3C32.7,23.6,32.5,23.7,32.6,23.7z M31.9,25.6c0.6,0.1,1.2,0.1,1.7,0.1c0.1,0,0.3-0.1,0.1-0.1
	c-0.5,0-1.1,0-1.6-0.1C32,25.5,31.8,25.6,31.9,25.6z M31.5,27c0.7,0,1.4,0,2.1-0.1c0.1,0,0.2-0.1,0-0.1c-0.7,0.1-1.3,0.1-2,0.1
	C31.6,26.9,31.3,27,31.5,27z M32.3,27.9c0.8,0.1,1.5,0.1,2.2-0.1c0.1,0,0.1-0.2,0-0.1c-0.7,0.2-1.4,0.2-2,0.1
	C32.4,27.8,32.1,27.9,32.3,27.9z M32.2,29c0.6,0.4,1.3,0.3,1.9,0c0.1-0.1-0.2,0-0.2,0c-0.5,0.3-1,0.2-1.5,0
	C32.4,28.9,32.2,29,32.2,29z M32.3,30.3c0.5,0.1,1.1,0.1,1.5-0.3c0.1-0.1-0.1-0.1-0.2-0.1c-0.3,0.3-0.8,0.3-1.2,0.2
	C32.3,30.1,32.1,30.2,32.3,30.3z M35,29.2c0,0.6,0,1.1,0.1,1.7c0,0.1,0.3,0,0.3-0.1c-0.1-0.6-0.1-1.1-0.1-1.7
	C35.3,29,35,29.1,35,29.2z M35.9,29.7c0.1,0.4,0.1,0.8,0.1,1.2c0,0.1,0.3,0.1,0.3,0c0-0.4,0-0.8-0.1-1.3
	C36.2,29.5,35.9,29.6,35.9,29.7z M37,29.4c0.1,0.5,0.1,1,0.1,1.6c0,0.1,0.3,0,0.3-0.1c0-0.5,0-1.1-0.1-1.6
	C37.2,29.3,36.9,29.3,37,29.4L37,29.4z M38.1,29.7c0,0.6,0.1,1.1,0.2,1.7c0,0.1,0.3,0,0.3-0.1c-0.1-0.6-0.2-1.1-0.2-1.7
	C38.3,29.5,38.1,29.6,38.1,29.7z M39.4,29.4c0.2,0.6,0.4,1.3,0.7,1.9c0,0.1,0.3,0,0.3-0.1c-0.3-0.6-0.4-1.3-0.7-1.9
	C39.6,29.3,39.4,29.3,39.4,29.4z M40.4,30c0.2,0.3,0.3,0.6,0.3,1c0,0,0.3,0,0.3-0.1c0-0.4-0.1-0.7-0.3-1L40.4,30z M38.4,56.8
	c0.3,0.7,0.4,1.4,0.3,2.1c0,0.1,0.2,0,0.3,0c0.1-0.7,0-1.5-0.3-2.2C38.6,56.7,38.4,56.8,38.4,56.8z M36.6,56.8c0,0.7,0,1.4-0.1,2
	c0,0.1,0.2,0.1,0.3,0c0.1-0.7,0.1-1.3,0.1-2C36.9,56.7,36.6,56.7,36.6,56.8z M34.5,57.8c0,0.3-0.1,0.7-0.1,1c0,0.1,0.3,0.1,0.3,0
	c0-0.3,0.1-0.7,0.1-1C34.7,57.7,34.5,57.7,34.5,57.8L34.5,57.8z M32.9,57.1c-0.1,0.5-0.1,1-0.1,1.5c0,0.1,0.3,0,0.3-0.1
	c0-0.5,0-1,0.1-1.5C33.2,56.9,32.9,57,32.9,57.1L32.9,57.1z M31.6,59.8c0.6,0,1.2,0.1,1.8,0.1c0.1,0,0.3-0.2,0.1-0.2
	c-0.6,0-1.2-0.1-1.8-0.1C31.6,59.7,31.4,59.8,31.6,59.8z M31.4,61.5c0.7-0.1,1.4-0.2,2.1-0.3c0.1,0,0.2-0.1,0-0.1
	C32.8,61.2,32.1,61.3,31.4,61.5C31.3,61.4,31.2,61.5,31.4,61.5L31.4,61.5z M31.7,62.5c0.5,0.1,1,0.1,1.4,0c0.2,0,0.1-0.1,0-0.1
	c-0.4,0.1-0.8,0.1-1.3,0C31.8,62.4,31.6,62.5,31.7,62.5z M31.6,63.8h1c0.1,0,0.3-0.1,0.1-0.1L31.6,63.8
	C31.6,63.6,31.4,63.8,31.6,63.8z M31.5,65.2c0,0.5,0.7,0.3,1,0.2c0,0,0.1-0.1,0-0.1s-0.1,0-0.2,0c-0.2,0.1-0.6,0.2-0.6-0.1
	C31.8,65,31.5,65.1,31.5,65.2L31.5,65.2z M31.6,66.5c0.4,0.3,0.8,0.1,1.1-0.3c0.1-0.1-0.1-0.2-0.2-0.1c-0.2,0.3-0.4,0.4-0.7,0.2
	C31.7,66.3,31.4,66.4,31.6,66.5z M34.1,66.2c0,0.6,0.1,1.1,0.2,1.7c0,0.1,0.3,0,0.3-0.1c-0.1-0.6-0.2-1.1-0.2-1.7
	C34.4,66,34.1,66.1,34.1,66.2L34.1,66.2z M35.1,66.4c0,0.5,0.1,0.9,0.1,1.4c0,0.1,0.3,0,0.3-0.1c0-0.5-0.1-0.9-0.1-1.4
	C35.4,66.3,35.1,66.3,35.1,66.4z M36.2,66.8c0.1,0.4,0.2,0.8,0.2,1.2c0,0.1,0.3,0,0.3-0.1c0-0.4-0.1-0.8-0.2-1.2
	C36.4,66.6,36.1,66.7,36.2,66.8z M37.3,66.7c0.1,0.3,0.3,0.5,0.5,0.8c0,0.1,0.3,0,0.2-0.1c-0.1-0.3-0.3-0.5-0.5-0.8
	C37.5,66.5,37.2,66.6,37.3,66.7z"/>
<path class="st12" d="M37.4,66.7c0.5-0.1,0.9,0.1,1,0.6c0,0.1,0.3,0,0.3-0.1c-0.1-0.6-0.7-0.8-1.2-0.7
	C37.3,66.6,37.2,66.7,37.4,66.7z M38.9,60.9c0.9-0.1,1.9-0.2,2.8-0.3c0.1,0,0.2-0.2,0-0.1C40.8,60.6,39.8,60.7,38.9,60.9
	C38.8,60.8,38.7,61,38.9,60.9z M38.9,62.3c0.6,0.2,1.3,0.1,2-0.1c0.2-0.1,0-0.1-0.1-0.1c-0.5,0.2-1.1,0.3-1.7,0.1
	C39,62.1,38.8,62.2,38.9,62.3z M39.3,63.7c0.5,0.1,1.1,0.1,1.6-0.1c0.2-0.1,0-0.2-0.1-0.1c-0.4,0.2-0.9,0.2-1.3,0.1
	C39.3,63.5,39.1,63.6,39.3,63.7z M39.7,64.5c0.4,0.1,0.8,0.1,1.2-0.1c0.1-0.1-0.1-0.1-0.2-0.1C40.4,64.5,40.1,64.5,39.7,64.5
	C39.8,64.4,39.6,64.5,39.7,64.5z M38.6,65.7c0.4,0.1,0.8,0.1,1.2,0.1c0.1,0,0.2-0.2,0-0.2c-0.4,0-0.7,0-1.1-0.1
	C38.6,65.5,38.4,65.6,38.6,65.7z M40.7,24c0.9-0.2,1.9-0.5,2.8-0.7c0.2,0,0.1-0.1,0-0.1c-0.9,0.2-1.9,0.4-2.8,0.7
	C40.5,24,40.6,24.1,40.7,24z M40.3,26c0.4,0,0.9,0,1.3-0.1c0.2,0,0.1-0.1,0-0.1c-0.4,0.1-0.8,0.1-1.2,0.1C40.3,25.8,40.1,26,40.3,26
	z M39.7,27.3c0.6,0,1.1-0.1,1.6-0.2c0.2,0,0.1-0.2,0-0.1c-0.5,0.1-1,0.2-1.5,0.2C39.7,27.2,39.6,27.3,39.7,27.3z M40.3,28.7
	c0.3,0.1,0.5,0.1,0.8,0.2c0.1,0,0.3-0.1,0.2-0.1c-0.3-0.1-0.5-0.1-0.8-0.2C40.5,28.5,40.5,28.6,40.3,28.7
	C40.4,28.6,40.3,28.6,40.3,28.7z M6.5,35.5c0.8-0.1,1.6-0.1,2.5-0.1c0.1,0,0.3-0.2,0.1-0.2c-0.8,0-1.7,0-2.5,0.1
	C6.4,35.3,6.3,35.5,6.5,35.5z M6.6,37.7c0.9-0.1,1.7-0.4,2.5-0.8c0.1-0.1-0.1-0.1-0.2-0.1C8.2,37.2,7.4,37.4,6.6,37.7
	C6.5,37.6,6.4,37.7,6.6,37.7z M7.9,39.4c1-0.3,2-0.8,3-1.1c0.2-0.1,0-0.1-0.1-0.1C9.8,38.5,8.9,38.9,7.9,39.4
	C7.7,39.4,7.8,39.4,7.9,39.4z M8.1,40.3c0.6,0,1.1-0.1,1.6-0.2c0.1,0,0.2-0.1,0-0.1c-0.5,0.1-1,0.2-1.5,0.2
	C8.2,40.2,8,40.3,8.1,40.3z"/>
<path class="st13" d="M24.2,77h2.4V5h-2.4V77z"/>
<path class="st12" d="M26.6,16.4c0,0.2-0.1,0.5-0.2,0.7s-0.3,0.4-0.6,0.5c-0.2,0.1-0.5,0.1-0.7,0.1s-0.5-0.2-0.6-0.3
	c-0.2-0.2-0.3-0.4-0.3-0.6s0-0.5,0.1-0.7c0.1-0.2,0.3-0.4,0.5-0.6c0.2-0.1,0.4-0.2,0.7-0.2c0.4,0,0.7,0.2,0.9,0.4
	C26.5,15.8,26.6,16.1,26.6,16.4z"/>
<path class="st13" d="M26,16.4c0,0.2-0.1,0.3-0.2,0.5c-0.1,0.1-0.3,0.2-0.5,0.2S25,17,24.8,16.9c-0.1-0.1-0.2-0.3-0.2-0.5
	s0.1-0.3,0.2-0.5c0.1-0.1,0.3-0.2,0.5-0.2s0.3,0.1,0.5,0.2C26,16.1,26,16.3,26,16.4L26,16.4z"/>
<path class="st12" d="M26.6,25.6c0,0.3-0.1,0.6-0.4,0.9c-0.2,0.2-0.5,0.4-0.9,0.4c-0.3,0-0.6-0.1-0.9-0.4C24.2,26.3,24,26,24,25.6
	c0-0.3,0.1-0.6,0.4-0.9c0.2-0.2,0.5-0.4,0.9-0.4c0.3,0,0.6,0.1,0.9,0.4S26.6,25.3,26.6,25.6L26.6,25.6z"/>
<path class="st13" d="M26,25.6c0,0.2-0.1,0.3-0.2,0.5c-0.1,0.1-0.3,0.2-0.5,0.2s-0.3-0.1-0.5-0.2c-0.1-0.1-0.2-0.3-0.2-0.5
	s0.1-0.3,0.2-0.5s0.3-0.2,0.5-0.2s0.3,0.1,0.5,0.2C26,25.3,26,25.5,26,25.6L26,25.6z"/>
<path class="st12" d="M26.6,34.8c0,0.2,0,0.3-0.1,0.5s-0.2,0.3-0.3,0.4c-0.1,0.1-0.3,0.2-0.4,0.3c-0.2,0.1-0.3,0.1-0.5,0.1
	s-0.3,0-0.5-0.1s-0.3-0.2-0.4-0.3s-0.2-0.3-0.3-0.4C24,35.1,24,35,24,34.8c0-0.3,0.1-0.6,0.4-0.9c0.2-0.2,0.5-0.4,0.9-0.4
	c0.3,0,0.6,0.1,0.9,0.4S26.6,34.5,26.6,34.8L26.6,34.8z"/>
<path class="st13" d="M26,34.8c0,0.2-0.1,0.3-0.2,0.5c-0.1,0.1-0.3,0.2-0.5,0.2s-0.3-0.1-0.5-0.2c-0.1-0.1-0.2-0.3-0.2-0.5
	s0.1-0.3,0.2-0.5c0.1-0.1,0.3-0.2,0.5-0.2s0.3,0.1,0.5,0.2C26,34.5,26,34.6,26,34.8L26,34.8z"/>
<path class="st12" d="M26.6,44c0,0.2,0,0.3-0.1,0.5s-0.2,0.3-0.3,0.4c-0.1,0.1-0.3,0.2-0.4,0.3c-0.2,0.1-0.3,0.1-0.5,0.1
	s-0.3,0-0.5-0.1s-0.3-0.2-0.4-0.3s-0.2-0.3-0.3-0.4C24,44.3,24,44.2,24,44c0-0.3,0.1-0.6,0.4-0.9c0.2-0.2,0.5-0.4,0.9-0.4
	c0.3,0,0.6,0.1,0.9,0.4S26.6,43.7,26.6,44L26.6,44z"/>
<path class="st13" d="M26,44c0,0.1,0,0.2-0.1,0.3c0,0.1-0.1,0.2-0.1,0.2c-0.1,0.1-0.1,0.1-0.2,0.1s-0.2,0.1-0.3,0.1
	c-0.1,0-0.2,0-0.3-0.1c-0.1,0-0.2-0.1-0.2-0.1c-0.1-0.1-0.1-0.1-0.1-0.2c0-0.1-0.1-0.2-0.1-0.3c0-0.2,0.1-0.3,0.2-0.5
	c0.1-0.1,0.3-0.2,0.5-0.2s0.3,0.1,0.5,0.2C26,43.7,26,43.8,26,44L26,44z"/>
<path class="st12" d="M26.6,53.2c0,0.3-0.1,0.6-0.4,0.9c-0.2,0.2-0.5,0.4-0.9,0.4c-0.3,0-0.6-0.1-0.9-0.4c-0.2-0.2-0.4-0.5-0.4-0.9
	c0-0.2,0-0.3,0.1-0.5s0.2-0.3,0.3-0.4c0.1-0.1,0.3-0.2,0.4-0.3c0.2,0,0.4,0,0.6,0c0.2,0,0.3,0,0.5,0.1s0.3,0.2,0.4,0.3
	s0.2,0.3,0.3,0.4C26.6,52.9,26.6,53,26.6,53.2L26.6,53.2z"/>
<path class="st13" d="M26,53.2c0,0.1,0,0.2-0.1,0.3c0,0.1-0.1,0.2-0.1,0.2c-0.1,0.1-0.1,0.1-0.2,0.1s-0.2,0.1-0.3,0.1
	c-0.1,0-0.2,0-0.3-0.1c-0.1,0-0.2-0.1-0.2-0.1c-0.1-0.1-0.1-0.1-0.1-0.2c0-0.1-0.1-0.2-0.1-0.3c0-0.2,0.1-0.3,0.2-0.5
	c0.1-0.1,0.3-0.2,0.5-0.2s0.3,0.1,0.5,0.2C26,52.8,26,53,26,53.2z"/>
<path class="st12" d="M26.6,62.4c0,0.2,0,0.3-0.1,0.5s-0.2,0.3-0.3,0.4c-0.1,0.1-0.3,0.2-0.4,0.3c-0.2,0.1-0.3,0.1-0.5,0.1
	s-0.3,0-0.5-0.1s-0.3-0.2-0.4-0.3s-0.2-0.3-0.3-0.4C24,62.7,24,62.6,24,62.4c0-0.3,0.1-0.6,0.4-0.9c0.2-0.2,0.5-0.4,0.9-0.4
	c0.3,0,0.6,0.1,0.9,0.4C26.5,61.7,26.6,62.1,26.6,62.4L26.6,62.4z"/>
<path class="st13" d="M26,62.4c0,0.1,0,0.2-0.1,0.3c0,0.1-0.1,0.2-0.1,0.2C25.7,63,25.7,63,25.6,63s-0.2,0.1-0.3,0.1
	c-0.1,0-0.2,0-0.3-0.1c-0.1,0-0.2-0.1-0.2-0.1c-0.1-0.1-0.1-0.1-0.1-0.2c0-0.1-0.1-0.2-0.1-0.3c0-0.2,0.1-0.3,0.2-0.5
	c0.1-0.1,0.3-0.2,0.5-0.2s0.3,0.1,0.5,0.2C26,62,26,62.2,26,62.4L26,62.4z"/>
<path class="st0" d="M37.4,3.7C29.7,6,25.5,14,25.5,14c-2.1-3.8-9.7-7.5-9.8-7.4c-0.1,0.1-0.4-2.6-0.6-4.3c-0.1-0.7,0.5-1.4,1.2-1.5
	l7.9-0.8c1-0.1,2-0.1,3,0l9,0.8c0.7,0.1,1.2,0.6,1.2,1.3V3.7z"/>
<path class="st12" d="M26.6,71.6c0,0.2,0,0.3-0.1,0.5s-0.2,0.3-0.3,0.4c-0.1,0.1-0.3,0.2-0.4,0.3c-0.2,0.1-0.3,0.1-0.5,0.1
	s-0.3,0-0.5-0.1s-0.3-0.2-0.4-0.3c-0.1-0.1-0.2-0.3-0.3-0.4C24,71.9,24,71.8,24,71.6c0-0.3,0.1-0.6,0.4-0.9c0.2-0.2,0.5-0.4,0.9-0.4
	c0.3,0,0.6,0.1,0.9,0.4C26.5,70.9,26.6,71.3,26.6,71.6L26.6,71.6z"/>
<path class="st13" d="M26,71.6c0,0.1,0,0.2-0.1,0.3c0,0.1-0.1,0.2-0.1,0.2c-0.1,0.1-0.1,0.1-0.2,0.1s-0.2,0.1-0.3,0.1
	s-0.2,0-0.3-0.1c-0.1,0-0.2-0.1-0.2-0.1c-0.1-0.1-0.1-0.1-0.1-0.2s-0.1-0.2-0.1-0.3c0-0.2,0.1-0.3,0.2-0.5c0.1-0.1,0.3-0.2,0.5-0.2
	s0.3,0.1,0.5,0.2S26,71.4,26,71.6z M25.4,15.2c0.4,0,0.7,0.2,0.9,0.4c-0.8,0.1-1.5,0.2-2,0.3C24.5,15.5,24.9,15.2,25.4,15.2z
	 M50.2,7.1c0,0-17,2.8-23.1,5.7c-0.6,0.3-1.2,0.6-1.5,0.9c0,0,8.7-14.8,24.6-13.6c-4.6,1.6-6.6,2.4-6.6,2.4L50.2,7.1L50.2,7.1z"/>
<path class="st14" d="M27,12.8c3.8-2.8,10.1-6.5,17.5-6.5c1.8,0,3.6,0.2,5.5,0.7l0.1,0.1l-1,0.2c-1.6,0.3-3.2,0.6-4.7,0.9
	c-1.7,0.3-3.3,0.7-4.9,1c-1.2,0.3-2.5,0.6-3.7,0.9c-1,0.2-2,0.5-2.9,0.8c-0.3,0.1-0.7,0.2-1,0.3c-0.7,0.2-1.4,0.4-2,0.6
	C28.8,12.1,27.8,12.4,27,12.8"/>
<path class="st13" d="M25.7,13.8c0,0-0.1-0.1-0.3-0.2C20.5,10.9,0.5,9.2,0.5,9.2l0.4-0.4L3,5.4c0,0-0.2-1.6-3-3.1
	C15.8-0.2,25.7,13.8,25.7,13.8z"/>
<path class="st14" d="M25.4,13.6c-0.5-0.3-1.2-0.6-2.1-0.8c-0.7-0.2-1.3-0.4-2-0.6c-0.9-0.2-1.8-0.4-2.7-0.6
	c-1.3-0.3-2.6-0.5-3.9-0.7c-0.7-0.1-1.4-0.2-2-0.3c-0.9-0.1-1.8-0.3-2.7-0.4C8.7,10,7.4,9.9,6.1,9.7C4.5,9.6,2.9,9.5,1.3,9.3
	c-0.5,0-0.8-0.1-0.8-0.1L1,8.9c1.8-0.3,3.6-0.4,5.4-0.4C16.1,8.5,23.8,12.7,25.4,13.6"/>
</svg>
