<?xml version="1.0" encoding="utf-8"?>
<!-- Generator: Adobe Illustrator 24.1.1, SVG Export Plug-In . SVG Version: 6.00 Build 0)  -->
<svg version="1.1" id="Layer_1" xmlns="http://www.w3.org/2000/svg" xmlns:xlink="http://www.w3.org/1999/xlink" x="0px" y="0px"
	 viewBox="0 0 323 118.3" style="enable-background:new 0 0 323 118.3;" xml:space="preserve">
<style type="text/css">
	.st0{fill:#95DCE3;}
	.st1{fill:#2C6E9E;}
	.st2{fill:#F2BA93;}
	.st3{fill:#74CDC3;}
	.st4{fill:#5E4C41;}
	.st5{fill:#F46E35;}
	.st6{fill:#39AB9B;}
	.st7{fill-rule:evenodd;clip-rule:evenodd;fill:#484848;}
	.st8{fill-rule:evenodd;clip-rule:evenodd;fill:#99321D;}
	.st9{fill:#C73F37;}
	.st10{fill:#99321D;}
	.st11{fill:#B34C29;}
	.st12{fill-rule:evenodd;clip-rule:evenodd;fill:#B34C29;}
	.st13{fill:#872613;}
	.st14{fill:#484848;}
	.st15{fill:#5F5F5F;}
	.st16{fill-rule:evenodd;clip-rule:evenodd;fill:#BFBFBF;}
	.st17{fill-rule:evenodd;clip-rule:evenodd;fill:#D8D8D8;}
	.st18{fill-rule:evenodd;clip-rule:evenodd;fill:#5F5F5F;}
	.st19{fill-rule:evenodd;clip-rule:evenodd;fill:#EFEFEF;}
	.st20{fill-rule:evenodd;clip-rule:evenodd;fill:#A8A8A8;}
	.st21{fill-rule:evenodd;clip-rule:evenodd;fill:#FFA733;}
	.st22{fill-rule:evenodd;clip-rule:evenodd;fill:#EB821A;}
	.st23{fill-rule:evenodd;clip-rule:evenodd;fill:#666633;}
	.st24{fill-rule:evenodd;clip-rule:evenodd;fill:#E8D460;}
	.st25{fill-rule:evenodd;clip-rule:evenodd;fill:#F17E1F;}
	.st26{fill-rule:evenodd;clip-rule:evenodd;fill:#CA5F1E;}
	.st27{fill-rule:evenodd;clip-rule:evenodd;fill:#585330;}
	.st28{fill-rule:evenodd;clip-rule:evenodd;fill:#D4B24C;}
</style>
<path class="st0" d="M231.4,35l-4.5-5c-0.7-0.8-0.6-2.1,0.2-2.8l2.3-2c0.7-0.6,1.8-0.7,2.6-0.1l4.3,2.5L231.4,35"/>
<path class="st1" d="M237.4,47.1l14.7,2.5c3.5,0.6,5.8,3.9,5.1,7.3l-3.3,15.3c0,0-7.8,0.5-8.4-0.6c-0.6-1.1,2.8-14.6,2.8-14.6
	l-8.8-2.1L237.4,47.1"/>
<path class="st2" d="M239.6,14.3c0.2-1.8,0.2-3.7-0.8-5.2c-1.9-2.9-6.9-3.5-9.9-2c-2.6,1.2-3.5,4.2-3.4,6.9c0,1.2,2.2,10.9,0.5,10.6
	c-0.7-0.1,1,0.9,1,0.9c1,0.4,3.3,0.5,4.3,0.3c0.4-0.1,1.2-0.3,1.2-0.3c0.2-0.5,0.5-1.2,0.7-2.2c0.4-1.4,0.4-1.8,0.8-2.1
	c0.7-0.4,1.4,0.5,2.4,0.2c0.4-0.1,0.7-0.5,1.2-1c1.1-1.1,1.4-2.8,1.6-4.3C239.5,15.5,239.5,14.9,239.6,14.3"/>
<path class="st3" d="M234,46.7l-18.6-0.6c0.2-3.8,1-8.5,3-13.3c1.5-3.6,3-5.4,4.6-6.6c1.3-1.1,2.6-1.7,3.6-2.1
	c1.3,0.9,3,1.4,4.9,1.4c0.4,0,0.7,0,1.1-0.1C233.7,26.8,234,46.7,234,46.7"/>
<path class="st4" d="M229.5,21.4c0.1-1.4,0.8-6.9,3.4-6.4c2.3-0.7,2.9-5.3,2.9-5.3l3-0.5c0,0-5.2-9.9-13.9-2.5
	c-3.5,1.9-3.8,5.7,1,13.7L229.5,21.4"/>
<path class="st2" d="M232.6,15.4c0.6,1.5,0.2,3.1-0.8,3.5c-1,0.4-2.4-0.6-2.9-2.1c-0.6-1.5-0.2-3.1,0.8-3.5
	C230.7,13,232,13.9,232.6,15.4z"/>
<path class="st2" d="M239,18h0.3c0.6,0,1.1-0.5,1.1-1.1c0-0.7-0.3-1.7-1.4-2.6C238.2,15.7,239,18,239,18"/>
<path class="st5" d="M217.4,13.1c0.8-1.5,3.4-2.2,4.9-3.2c0,0,0,0,0-0.1c-0.1-0.4,0.5-1,0.6-1.4l0,0c-1.2-4.1,2.4-5.9,6.4-6.4
	c4-0.6,8.3,0.8,8.2,4.4l0,0c0.3,0.4,1.2,0.8,1.2,1.2c0.1,0,0.2,0,0.4,0c6.7-0.5,8.1,0.5,7.1,1.1C236,14.3,216.5,14.8,217.4,13.1"/>
<path class="st6" d="M239.1,7.6c-0.3,0.1-7,3.1-16.8,2.2c-0.1-0.4,0-1.1,0.6-1.4l0,0c2.4,0.1,9,0.2,14.6-1.9
	c0.8,0.2,1.2,0.8,1.2,1.2C238.8,7.6,239,7.6,239.1,7.6"/>
<path class="st7" d="M244.5,44.7l6.9-12.1c0.2-0.4,0.7-0.6,1.2-0.4c0.4,0.2,0.5,0.7,0.4,1.2l-6.9,12.1c-0.2,0.4-0.7,0.6-1.2,0.4
	C244.3,45.5,244.1,45,244.5,44.7z"/>
<path class="st8" d="M250.3,40.5l1-1.8l-1.2-0.7l-1,1.8L250.3,40.5z"/>
<path class="st7" d="M267.1,50.2l0.6-1.2l-16.6-10.1l-0.6,1.2L267.1,50.2z"/>
<path class="st9" d="M179.1,99.1h13.6v1.8h-13.6V99.1z"/>
<path class="st9" d="M180.5,98.4h1.4v3.6h-1.4V98.4z"/>
<path class="st10" d="M167.6,95.2h1.4v7.9h-1.4V95.2z"/>
<path class="st11" d="M166.2,93h3.9v2.2h-3.9V93z"/>
<path class="st11" d="M166.5,82.6h2.9V93h-2.9V82.6z"/>
<path class="st11" d="M167.6,81.2h1.4v1.4h-1.4V81.2z"/>
<path class="st11" d="M169.4,88.7h0.7v1.4h-0.7V88.7z"/>
<path class="st12" d="M117,102.4h54.5l4-3.9h7.1v-2.2H113l4,4.3V102.4z"/>
<path class="st8" d="M145.7,96.3H113l3.3,3.9h29.4V96.3z"/>
<path class="st8" d="M144.7,81.2h1.3l13,15.1h-1.3L144.7,81.2z"/>
<path class="st11" d="M1.1,94.5h144.6v4.7H1.1V94.5z"/>
<path class="st13" d="M1.1,77.6h144.6v16.9H1.1V77.6z"/>
<path class="st10" d="M1.1,94.8h144.6v3.9H1.1V94.8z"/>
<path class="st11" d="M144.3,76.2h0.7v23h-0.7V76.2z"/>
<path class="st10" d="M141.1,76.2h3.2v23h-3.2V76.2z"/>
<path class="st11" d="M114.5,76.2h1.1v23h-1.1V76.2z"/>
<path class="st10" d="M111.6,76.2h2.9v23h-2.9V76.2z"/>
<path class="st11" d="M85.1,76.2h0.7v23h-0.7V76.2z"/>
<path class="st10" d="M82.2,76.2h2.9v23h-2.9V76.2z"/>
<path class="st11" d="M56,76.2h0.7v23H56V76.2z"/>
<path class="st10" d="M52.8,76.2H56v23h-3.2V76.2z"/>
<path class="st12" d="M314.7,92.7h-86.1v-9.4h25.6l-8-22l21.5-0.1l40.9,4.4c3.2,0.3,6.1,2.6,6.1,5.8V92.7L314.7,92.7z"/>
<path class="st7" d="M268.1,83.3h3.4l-3.4-35.1h-3.6L268.1,83.3z"/>
<path class="st7" d="M314.7,73.7h-27.1l-4.8,9.7h-7.9v9.3h39.8V73.7z"/>
<path class="st14" d="M247.3,92.7h35.2v9.7h-35.2V92.7z"/>
<path class="st15" d="M198.8,41.7h4.7v54.9h-4.7V41.7z"/>
<path class="st16" d="M197.9,27.7h6.1c0.4,0,0.9,0.1,0.9,0.6v12.5c0,0.4-0.5,0.9-0.9,0.9h-6.1c-0.4,0-0.2-0.5-0.2-0.9V28.3
	c0-0.4-0.1-0.6,0.3-0.6H197.9L197.9,27.7z"/>
<path class="st17" d="M203.3,27.7c0-0.4-0.2-0.4-0.4-0.4h-3.8c-0.3,0-0.4,0-0.4,0.4H203.3z"/>
<path class="st18" d="M202.1,27.4h-1.4v-3.6h-1.1v-2.5h1.1c0.6,0,1.4,0.2,1.4,0.9V27.4z"/>
<path class="st8" d="M206.7,83.3h43.4l-9.5-25.9c-1.3-3.7-4.9-7.8-8.8-7.8h-25.1V83.3z"/>
<path class="st8" d="M283.9,94.8l8.4-16.1h22.5v16.1H283.9z"/>
<path class="st18" d="M305.8,82c-9.4,0-17.1,7.7-17.1,17.1s7.7,17.1,17.1,17.1s17.1-7.7,17.1-17.1S315.3,82,305.8,82z"/>
<path class="st7" d="M305.8,87.9c-6.2,0-11.2,5-11.2,11.2s5,11.2,11.2,11.2s11.2-5,11.2-11.2C317,93,312,87.9,305.8,87.9z"/>
<path class="st19" d="M305.8,88.8c-5.7,0-10.3,4.6-10.3,10.3c0,5.7,4.6,10.3,10.3,10.3c5.7,0,10.3-4.6,10.3-10.3
	C316.1,93.4,311.5,88.8,305.8,88.8z"/>
<path class="st12" d="M305.8,90.7c-4.6,0-8.4,3.7-8.4,8.4c0,4.6,3.7,8.4,8.4,8.4s8.4-3.7,8.4-8.4C314.2,94.5,310.4,90.7,305.8,90.7z
	"/>
<path class="st8" d="M305.8,94c-2.8,0-5.1,2.3-5.1,5.1c0,2.8,2.3,5.1,5.1,5.1c2.8,0,5.1-2.3,5.1-5.1S308.6,94,305.8,94z"/>
<path class="st12" d="M305.8,97.2c-1.1,0-2,0.9-2,2s0.9,2,2,2s2-0.9,2-2C307.8,98,306.9,97.2,305.8,97.2z"/>
<path class="st12" d="M47.4,106.3c0.5-1.8,0.7-3.6,0.7-5.4c0-10.8-8.8-19.6-19.5-19.6S9.1,90.2,9.1,101c0,1.8,0.3,3.6,0.7,5.3h1.8
	c-0.5-1.8-0.8-3.6-0.8-5.4c0-9.8,8-17.9,17.8-17.9s17.8,8.1,17.8,17.9c0,1.8-0.3,3.6-0.8,5.3L47.4,106.3L47.4,106.3z"/>
<path class="st8" d="M46.4,102.4c0-0.4,0-1,0-1.4c0-9.8-8-17.9-17.8-17.9S10.8,91.2,10.8,101c0,0.4,0,1,0,1.4H46.4z"/>
<path class="st18" d="M28.6,85.3c-8.5,0-15.5,6.9-15.5,15.5c0,8.5,7,15.5,15.5,15.5s15.5-7,15.5-15.5C44.1,92.2,37.1,85.3,28.6,85.3
	z"/>
<path class="st7" d="M28.6,90.7c-5.6,0-10.1,4.5-10.1,10.1s4.5,10.1,10.1,10.1s10.1-4.5,10.1-10.1S34.2,90.7,28.6,90.7z"/>
<path class="st19" d="M28.6,91.4c-5.2,0-9.3,4.2-9.3,9.3c0,5.2,4.2,9.3,9.3,9.3c5.2,0,9.3-4.2,9.3-9.3
	C37.9,95.6,33.8,91.4,28.6,91.4z"/>
<path class="st16" d="M28.6,93.2c-4.2,0-7.5,3.4-7.5,7.5c0,4.2,3.4,7.6,7.5,7.6c4.2,0,7.6-3.4,7.6-7.6
	C36.2,96.6,32.8,93.2,28.6,93.2z"/>
<path class="st20" d="M28.6,96.2c-2.5,0-4.6,2-4.6,4.6s2,4.6,4.6,4.6s4.6-2,4.6-4.6S31.1,96.2,28.6,96.2z"/>
<path class="st19" d="M28.6,99c-1,0-1.8,0.8-1.8,1.8s0.8,1.8,1.8,1.8s1.8-0.8,1.8-1.8S29.6,99,28.6,99z"/>
<path class="st12" d="M290.6,76.2l-9.8,18.7h3l8.4-16.1h26.1v-2.5L290.6,76.2L290.6,76.2z"/>
<path class="st10" d="M247.3,83.3h27.6v9.3h-27.6L247.3,83.3L247.3,83.3z"/>
<path class="st14" d="M250.2,63.6h5.7v1.8h-5.7V63.6z"/>
<path class="st12" d="M203.9,49.6h28c3.9,0,7.5,4.1,8.8,7.8l9.5,25.9h4.1l-10.8-29.5c-1.3-3.7-4.9-7.8-8.8-7.8h-30.8V49.6z"/>
<path class="st10" d="M272,65.4h6.5v1.8H272V65.4z"/>
<path class="st10" d="M272,68.6h6.5v1.8H272V68.6z"/>
<path class="st10" d="M272,71.5h6.5v1.8H272V71.5z"/>
<path class="st10" d="M272,74.7h6.5v1.8H272V74.7z"/>
<path class="st10" d="M272,77.6h6.5v1.8H272V77.6z"/>
<path class="st8" d="M304.1,65.2l-2.8-7.6h-22.1l-1.5,4.8L304.1,65.2z"/>
<path class="st12" d="M291.7,57.5l-0.7-1.8h-9.6l-0.6,1.8H291.7z"/>
<path class="st7" d="M229.5,46h5.1l-0.2-3.2c-0.1-2.2-5.4-2-5.2,0L229.5,46z"/>
<path class="st11" d="M0.7,72.6h146.1v3.6H0.7V72.6z"/>
<path class="st11" d="M1.1,76.2h144.6v1.4H1.1V76.2z"/>
<path class="st10" d="M1.1,76.2h144.6v0.7H1.1V76.2z"/>
<path class="st21" d="M37.8,49.3c10-6,14.3,12.4,3.2,13.1C31.5,69.4,23.2,48.3,37.8,49.3z"/>
<path class="st22" d="M37.8,49.3c8.1-3.3,12.3,10,3.2,13.1C44.8,59.4,44.4,49.7,37.8,49.3z"/>
<path class="st22" d="M37.8,49.3c2.2,2.4,3.4,10.4,3.2,13.1C37.4,61,34.6,52.7,37.8,49.3z"/>
<path class="st22" d="M37.8,49.3c-6.7,1.4-4.5,13.6,3.2,13.1C32.2,65.7,26.6,49.5,37.8,49.3z"/>
<path class="st23" d="M38.1,49.3v-1.1l-1.5-0.4l-0.3-0.5l-1,0.4l0.5,0.7h1.5l0.4,1L38.1,49.3z"/>
<path class="st21" d="M123,52.9c11.7,0.9,4.6,18.3-5,12.6C106.4,65.8,111.6,43.8,123,52.9z"/>
<path class="st22" d="M123,52.9c8.6,1.9,4.3,15.3-5,12.6C122.9,65.3,128.2,57.1,123,52.9z"/>
<path class="st22" d="M123,52.9c0.4,3.2-3.2,10.5-5,12.6C116,62.3,118.5,53.9,123,52.9z"/>
<path class="st22" d="M123,52.9c-6.3-2.7-11.4,8.5-5,12.6C109,63.1,113.7,46.7,123,52.9z"/>
<path class="st23" d="M123,53l0.6-0.9l-0.9-1.2l0.1-0.5l-1-0.3l0.1,0.9l1.2,0.9l-0.4,1h0.3C123,52.9,123,53,123,53z"/>
<path class="st24" d="M141.3,72.6c-0.5,0-1.9-4.4-5.1-4.2c4-1.8,1.7-6.3-2.5-2.8c1.8-3.4,0.3-4.8-3.3-4.7c-0.2-3-1.7-1-3.3,1.6
	c0.5-3.2-0.9-3-2.8-1.6c0.1-1.6-1-1.6-3.8,0.5c3.7-4.8,0.4-6.2-4.1-1.2c1.3-2.4-2.5-6.1-3.7-2.4c-1.6-1.8-3.7-1.2-5.8,0
	c-0.4-3.2-5.4-3.4-5.2,2.5c-2.3-3.5-7.9-1-5.6,1.9c-2.1-0.8-4.2,0-6.4,1.5c2.4-2.8-0.5-4.2-4-1.1c0.8-6.6-1.3-9.4-5.6-0.9
	c0.5-2.9,0-5-4.1-4c4.3-4.6,1.9-9.5-2.7-2.3c-0.5-6.1-5-6.7-6.8,0.8c-2.1-4.1-7.5-3.9-6.2,1.3c-1.2-1.5-2.7-2.5-5.2-1.1
	c-0.2-1.7-1.3-1.7-3.1-0.8c1.7-4.3-2.1-2.2-3.8,2.1c-2.9-4.8-6.6-0.4-4.3,2.4c-3.9-1.5-7.6,0-11.3,2.8c4.5-4.6,2.3-7-3.5-1.5
	c0.2-6.6-6.1-7.3-3.8-0.5c-3.7-4.3-11.9-1.5-4.8,1.1c-3.4-0.6-5.7,0.5-5.8,4.5c-1.2-6.9-5.8-4.1-6.1,1.4c-2.3-4.5-7.4,0.3-3.6,4.6
	C50.4,72.6,95.8,72.6,141.3,72.6z"/>
<path class="st25" d="M96.3,59.7c10-1.9,8,14.4-1.3,11.7C85.3,74.3,84.7,54.5,96.3,59.7z"/>
<path class="st26" d="M96.3,59.7c7.6-0.3,7.1,11.9-1.3,11.7C99.1,70.1,101.6,62,96.3,59.7z"/>
<path class="st26" d="M96.3,59.7c1,2.7-0.3,9.5-1.3,11.7C92.5,69.1,92.7,61.5,96.3,59.7z"/>
<path class="st26" d="M96.3,59.7c-6-0.9-7.7,9.8-1.3,11.7C86.9,71.4,87.1,56.5,96.3,59.7z"/>
<path class="st27" d="M96.4,59.7l0.4-0.9L95.7,58v-0.5h-0.9l0.2,0.8l1.3,0.5L96.4,59.7L96.4,59.7z"/>
<path class="st28" d="M11,72.6h6.9c-1.5-2.2-2.8-3.9-3.1-1.1C12.9,71.4,11.6,71.5,11,72.6z M18.1,72.6h112.5
	c-0.6-2.9-2.7-3.7-5.7-3.2c7.1-2.6-1.1-5.4-4.8-1.1c2.3-6.8-4-6.1-3.8,0.5c-5.7-5.6-8-3.2-3.4,1.4c-3.7-2.8-7.5-1.1-11.4,0.4
	c2.3-2.8-1.3-7.2-4.3-2.4c-1.8-4.3-5-3.9-3.3,0.4c-1.7-0.9-2.9-0.9-3.1,0.8c-1.4-2.3-4.5-3-5.7-1.5c1.2-5.2-4.1-5.4-6.2-1.3
	c-1.8-7.5-6.3-6.9-6.8-0.8c-4.6-7.2-7-2.3-2.7,2.3c-3.8-2.3-5.7-1.6-5.2,1.3c-4.2-8.5-6.4-5.7-5.6,0.9c-3.5-3.2-6.4-1.8-4,1.1
	c-2.2-1.5-4.3-2.3-6.4-1.5c2.3-2.9-2.3-2.7-4.5,0.8c0.2-6-4.8-5.7-5.2-2.5c-2.2-1.2-4.3-1.8-5.8,0c-1.2-3.7-5,0-3.7,2.4
	c-4.5-5-7.8-3.6-4.1,1.2c-2.8-2.1-4-2-3.8-0.5C19.1,70,17.8,69.7,18.1,72.6z M131.1,72.6h3.8C133.6,70.8,132,69.7,131.1,72.6z"/>
<path class="st2" d="M247.1,39.7c-0.5,0.1-1,1.1-1.6,1.2c-3.3,0.3-6.1-0.4-8.1-1.2c-2-3-4.4-5.5-6.3-8.6l-5.6,4.1l8.3,10.3l12.4-0.6
	c0.6,0.7,1.7,0.7,2.2-0.1l0.2-0.3c0.5-0.8,0.4-1.7-0.2-2.4c-0.2-0.2-0.6-0.5-0.9-1.1C247.2,40.5,247.1,40,247.1,39.7"/>
<path class="st0" d="M226,37.8l-2.6-6.2c-0.4-1,0.1-2.2,1.1-2.6l2.8-1.2c0.9-0.4,1.9-0.1,2.5,0.7l3.2,3.8L226,37.8"/>
</svg>
