<?xml version="1.0" encoding="utf-8"?>
<!-- Generator: Adobe Illustrator 24.1.1, SVG Export Plug-In . SVG Version: 6.00 Build 0)  -->
<svg version="1.1" id="Layer_1" xmlns="http://www.w3.org/2000/svg" xmlns:xlink="http://www.w3.org/1999/xlink" x="0px" y="0px"
	 viewBox="0 0 64.2 64.3" style="enable-background:new 0 0 64.2 64.3;" xml:space="preserve">
<style type="text/css">
	.st0{fill-rule:evenodd;clip-rule:evenodd;fill:#5F5F5F;}
	.st1{fill-rule:evenodd;clip-rule:evenodd;fill:#484848;}
	.st2{fill-rule:evenodd;clip-rule:evenodd;fill:#EFEFEF;}
	.st3{fill-rule:evenodd;clip-rule:evenodd;fill:#B34C29;}
	.st4{fill-rule:evenodd;clip-rule:evenodd;fill:#99321D;}
</style>
<path class="st0" d="M30,1.1c-1.5,0.1-2.9,0.2-4.3,0.5l-0.6-1.2L22,1.2l0,1.3c-1.4,0.5-2.7,1-4,1.7l-0.9-1l-2.7,1.6L14.8,6
	c-1.2,0.8-2.4,1.7-3.5,2.7l-1.1-0.7L8,10.2l0.7,1.1c-1,1.1-1.8,2.2-2.7,3.4l-1.3-0.4L3.2,17l1,0.9c-0.6,1.3-1.2,2.7-1.7,4l-1.3,0
	L0.4,25l1.1,0.6c-0.3,1.4-0.4,2.8-0.4,4.3L0,30.2v3.2l1.1,0.3c0.1,1.5,0.2,2.9,0.5,4.3l-1.2,0.6l0.8,3.1l1.3,0c0.5,1.4,1,2.7,1.7,4
	l-1,0.9l1.6,2.7l1.3-0.4c0.8,1.2,1.7,2.4,2.7,3.5L8,53.4l2.2,2.2l1.1-0.7c1.1,1,2.3,1.8,3.5,2.7l-0.4,1.3l2.7,1.6l0.9-1
	c1.3,0.6,2.7,1.2,4,1.7l0,1.3l3.1,0.8l0.6-1.1c1.4,0.3,2.8,0.6,4.3,0.8l0.3,1.5h3.2l0.3-1.5c1.5-0.1,2.9-0.4,4.3-0.6l0.6,1.1
	l3.1-0.8l0-1.3c1.4-0.5,2.7-1,4-1.7l0.9,1l2.7-1.6l-0.4-1.3c1.2-0.8,2.4-1.7,3.4-2.7l1.1,0.7l2.2-2.2L55,52.3c1-1.1,1.8-2.3,2.7-3.5
	l1.3,0.4l1.6-2.7l-1-0.9c0.6-1.3,1.2-2.7,1.7-4l1.3,0l0.8-3.1l-1.1-0.6c0.3-1.4,0.6-2.8,0.7-4.3l1.4-0.3v-3.2l-1.4-0.3
	c-0.1-1.5-0.3-2.9-0.6-4.3l1.1-0.6l-0.8-3.1l-1.3,0c-0.5-1.4-1-2.7-1.7-4l1-0.9l-1.6-2.7l-1.3,0.4c-0.8-1.2-1.7-2.4-2.7-3.4l0.7-1.1
	l-2.2-2.2l-1.1,0.7c-1.1-1-2.2-1.8-3.4-2.7l0.4-1.3l-2.7-1.6l-0.9,1c-1.3-0.6-2.7-1.2-4-1.7l0-1.3l-3.1-0.8L38,1.5
	c-1.4-0.3-2.8-0.3-4.3-0.4L33.4,0h-3.2L30,1.1z"/>
<path class="st1" d="M31.9,12C21,12,12.1,20.8,12.1,31.8c0,10.9,8.8,19.7,19.7,19.7c10.9,0,19.8-8.8,19.8-19.7
	C51.6,20.8,42.8,12,31.9,12z"/>
<path class="st2" d="M31.9,13.6c-10,0-18.1,8.1-18.1,18.2c0,10,8.1,18.1,18.1,18.1c10,0,18.2-8.1,18.2-18.1
	C50,21.7,41.9,13.6,31.9,13.6z"/>
<path class="st3" d="M31.9,16.3c-8.6,0-15.5,7-15.5,15.5c0,8.6,7,15.5,15.5,15.5c8.6,0,15.5-7,15.5-15.5
	C47.4,23.2,40.4,16.3,31.9,16.3z"/>
<path class="st4" d="M31.9,20.7c-6.1,0-11.1,5-11.1,11.1c0,6.1,5,11.1,11.1,11.1c6.1,0,11.1-5,11.1-11.1
	C42.9,25.7,38,20.7,31.9,20.7z"/>
<path class="st3" d="M31.9,22.9c-4.9,0-8.9,4-8.9,8.9c0,4.9,4,8.9,8.9,8.9c4.9,0,8.9-4,8.9-8.9C40.8,26.8,36.8,22.9,31.9,22.9z"/>
<path class="st4" d="M31.9,29.4c-1.3,0-2.4,1.1-2.4,2.4c0,1.3,1.1,2.4,2.4,2.4c1.3,0,2.4-1.1,2.4-2.4C34.2,30.5,33.2,29.4,31.9,29.4
	z"/>
<path class="st1" d="M29.9,1.6c-1.3,0.1-2.6,0.3-3.8,0.5l1.2,2.3c0.7-0.1,1.4-0.2,2.1-0.3L29.9,1.6z M22.1,3.2
	c-1.2,0.4-2.4,0.9-3.6,1.5l1.8,1.9C21,6.2,21.6,6,22.2,5.7L22.1,3.2z M15,6.7C14,7.4,13,8.2,12,9l2.2,1.4c0.5-0.5,1.1-0.9,1.7-1.3
	L15,6.7z M9.1,11.9c-0.8,1-1.7,2-2.3,3.1l2.5,0.8c0.4-0.6,0.8-1.1,1.3-1.7L9.1,11.9z M4.8,18.4c-0.6,1.1-1.1,2.3-1.5,3.6l2.6,0.1
	c0.3-0.6,0.5-1.3,0.8-1.9L4.8,18.4z M2.2,25.9c-0.3,1.3-0.4,2.5-0.5,3.8l2.5-0.6c0.1-0.7,0.2-1.4,0.3-2.1L2.2,25.9z M1.7,33.8
	c0.1,1.3,0.3,2.6,0.5,3.8l2.3-1.2c-0.1-0.7-0.2-1.4-0.3-2.1L1.7,33.8z M3.3,41.5c0.4,1.2,0.9,2.4,1.5,3.6l1.9-1.8
	c-0.3-0.6-0.5-1.3-0.8-1.9L3.3,41.5z M6.8,48.6c0.7,1.1,1.5,2.1,2.3,3.1l1.4-2.2c-0.4-0.5-0.9-1.1-1.3-1.7L6.8,48.6z M12,54.5
	c1,0.8,2,1.7,3.1,2.3l0.8-2.5c-0.6-0.4-1.1-0.8-1.6-1.3L12,54.5z M18.6,58.9c1.1,0.6,2.3,1.1,3.6,1.5l0.1-2.6
	c-0.6-0.3-1.3-0.5-1.9-0.8L18.6,58.9z M26,61.4c1.3,0.3,2.5,0.4,3.8,0.5l-0.6-2.5c-0.7-0.1-1.4-0.2-2.1-0.3L26,61.4z M33.9,61.9
	c1.3-0.1,2.6-0.3,3.8-0.5l-1.2-2.3c-0.7,0.1-1.4,0.2-2.1,0.3L33.9,61.9z M41.6,60.4c1.2-0.4,2.4-0.9,3.6-1.5L43.4,57
	c-0.6,0.3-1.3,0.6-1.9,0.8L41.6,60.4z M48.7,56.8c1.1-0.7,2.1-1.5,3.1-2.3l-2.2-1.4c-0.5,0.5-1.1,0.9-1.7,1.3L48.7,56.8z M54.6,51.6
	c0.8-1,1.7-2,2.3-3.1l-2.5-0.8c-0.4,0.6-0.8,1.1-1.3,1.7L54.6,51.6z M59,45.1c0.6-1.1,1.1-2.3,1.5-3.6l-2.6-0.1
	c-0.3,0.6-0.5,1.3-0.8,1.9L59,45.1z M61.5,37.6c0.3-1.3,0.4-2.5,0.5-3.8l-2.5,0.6c-0.1,0.7-0.2,1.4-0.3,2.1L61.5,37.6z M62,29.7
	c-0.1-1.3-0.3-2.6-0.5-3.8l-2.3,1.2c0.1,0.7,0.2,1.4,0.3,2.1L62,29.7z M60.5,22c-0.4-1.2-0.9-2.4-1.5-3.6l-1.9,1.8
	c0.3,0.6,0.6,1.3,0.8,1.9L60.5,22z M56.9,14.9c-0.7-1.1-1.5-2.1-2.3-3.1l-1.4,2.2c0.5,0.5,0.9,1.1,1.3,1.7L56.9,14.9z M51.7,9
	c-1-0.8-2-1.7-3.1-2.3l-0.8,2.5c0.6,0.4,1.1,0.8,1.6,1.3L51.7,9z M45.2,4.7c-1.1-0.6-2.3-1.1-3.6-1.5l-0.1,2.6
	c0.6,0.3,1.3,0.5,1.9,0.8L45.2,4.7z M37.7,2.1c-1.3-0.3-2.5-0.4-3.8-0.5l0.6,2.5c0.7,0.1,1.4,0.2,2.1,0.3L37.7,2.1z"/>
</svg>
